<svg width="39" height="26" viewBox="0 0 39 26" fill="none" xmlns="http://www.w3.org/2000/svg">
<path d="M19.4825 25.9999C19.0068 25.9999 18.5311 25.8841 18.1068 25.6527L17.1554 25.1384C16.8469 24.9713 16.7311 24.5727 16.8983 24.2642C17.0654 23.9556 17.464 23.8399 17.7726 24.007L18.724 24.5213C19.084 24.7141 19.534 24.7656 19.9197 24.6499C20.1511 24.5856 20.4597 24.4313 20.6525 24.0842C20.9354 23.5699 20.8325 22.9527 20.5625 22.6442C20.344 22.387 20.3568 22.027 20.5883 21.7827C20.7811 21.577 21.1282 21.4999 21.3854 21.6285L23.5068 22.747C24.1882 23.1199 25.0496 22.9013 25.3968 22.2713C25.6411 21.8085 25.5511 21.1785 25.3068 20.8313L23.3268 19.4556C23.1916 19.3629 23.0974 19.2215 23.0639 19.061C23.0304 18.9006 23.0601 18.7333 23.1468 18.5942C23.3268 18.2985 23.6996 18.2085 24.0082 18.3628L27.7496 20.3942C28.1225 20.5999 28.4696 20.5613 28.6882 20.497C29.0353 20.3942 29.3439 20.1499 29.5239 19.8028C29.7039 19.4813 29.7553 19.1213 29.6653 18.7999C29.5753 18.4785 29.3696 18.2214 29.061 18.0542L26.6825 16.5114C26.3996 16.3314 26.3096 15.9457 26.4768 15.65C26.6439 15.3542 27.0168 15.2385 27.3253 15.3928L32.1853 17.8099C32.841 18.1699 33.6253 17.9128 33.9853 17.2314C34.3324 16.5885 34.0753 15.74 33.4195 15.38C33.111 15.2128 32.9953 14.8142 33.1624 14.5057C33.3295 14.1971 33.7281 14.0814 34.0367 14.2485C35.3095 14.9428 35.7981 16.5885 35.1167 17.8485C34.3967 19.1599 32.8538 19.6356 31.5939 18.9542L30.951 18.6328C31.0667 19.2371 30.9767 19.8671 30.6553 20.4328C30.3082 21.0628 29.7296 21.5385 29.0482 21.7442C28.4053 21.937 27.7239 21.8599 27.1325 21.5385L26.8239 21.3713C26.8753 21.8727 26.7982 22.3999 26.541 22.8885C25.8596 24.1356 24.2011 24.5856 22.9154 23.8913L22.1182 23.467C22.1182 23.8913 22.0025 24.3284 21.7968 24.7141C21.4882 25.2799 20.9611 25.7041 20.3054 25.897C20.0225 25.9613 19.7525 25.9999 19.4825 25.9999ZM4.96698 13.04C4.87698 13.04 4.77412 13.0143 4.68412 12.9757L1.86844 11.6C0.248455 10.8029 -0.458681 8.83574 0.31274 7.20289L2.78129 1.93152C3.14016 1.16251 3.7794 0.559748 4.56815 0.246637C5.3569 -0.0664733 6.2355 -0.0662543 7.0241 0.247249L11.7683 2.13723C12.1026 2.2658 12.2569 2.63865 12.1283 2.97294C11.9998 3.30722 11.6269 3.4615 11.2926 3.33293L6.53553 1.43009C5.53269 1.03153 4.38841 1.48152 3.92556 2.47151L1.45701 7.74289C0.994162 8.74574 1.41844 9.9543 2.40843 10.4429L5.22412 11.8186C5.3002 11.8556 5.36823 11.9073 5.42429 11.9706C5.48036 12.034 5.52336 12.1078 5.55083 12.1879C5.57831 12.2679 5.58971 12.3526 5.58439 12.437C5.57907 12.5215 5.55713 12.604 5.51983 12.68C5.42983 12.9114 5.1984 13.04 4.96698 13.04Z" fill="white"/>
<path d="M33.7153 15.4443C33.6124 15.4443 33.5096 15.4186 33.4067 15.3672L28.6882 12.7829L19.9197 7.39583C19.6111 7.20298 19.5211 6.81727 19.714 6.5087C19.9068 6.20013 20.2925 6.11013 20.6011 6.30299L29.3439 11.6772L34.0367 14.2486C34.3453 14.4158 34.461 14.8143 34.2938 15.1229C34.1524 15.3286 33.9338 15.4443 33.7153 15.4443Z" fill="white"/>
<path d="M34.2681 12.873C34.0238 12.873 33.7924 12.7316 33.6895 12.5001C33.6529 12.4244 33.6319 12.342 33.6276 12.2579C33.6233 12.1739 33.636 12.0898 33.6647 12.0107C33.6935 11.9316 33.7378 11.8591 33.7951 11.7974C33.8523 11.7357 33.9214 11.6861 33.9981 11.6516L36.0809 10.6873C36.5641 10.4604 36.9402 10.0546 37.1297 9.55562C37.3193 9.0566 37.3074 8.50346 37.0967 8.01303L34.9367 3.06308C34.7181 2.5488 34.3067 2.16309 33.7924 1.97024C33.2781 1.77738 32.7124 1.79024 32.211 2.02166L29.421 3.32022C29.1767 3.43594 28.881 3.38451 28.6882 3.19165C28.5339 3.03737 28.3667 2.87023 28.1739 2.7288C24.3939 1.90595 20.164 1.16024 19.5211 1.30167C18.1711 1.85452 15.3554 3.79593 13.8383 4.85021L13.324 5.2102C13.1698 6.0202 12.8355 6.93305 12.4626 7.97446C12.2698 8.52732 12.0512 9.11874 11.8455 9.73588C12.5269 10.3016 13.1826 10.3659 13.6326 10.3144C14.2883 10.2373 14.9054 9.83873 15.2269 9.27302C15.484 8.83588 15.8183 7.98732 16.0497 7.19019C16.0871 7.07004 16.1575 6.96287 16.2531 6.881C16.3486 6.79912 16.4653 6.74586 16.5897 6.72733C17.0269 6.6759 18.7883 6.30305 19.8297 6.04591C20.1768 5.95591 20.524 6.17448 20.6011 6.52162C20.6782 6.86876 20.4725 7.2159 20.1254 7.29304C19.3154 7.4859 17.9397 7.78161 17.1811 7.92304C16.9754 8.57874 16.6669 9.37588 16.3583 9.90302C15.8312 10.8159 14.8669 11.4459 13.7997 11.5744C12.6683 11.7159 11.5498 11.2787 10.6498 10.353C10.5691 10.2693 10.5122 10.1656 10.4851 10.0526C10.458 9.93957 10.4616 9.82134 10.4955 9.71016C10.7398 8.92588 11.0098 8.19303 11.2541 7.51161C11.6526 6.40591 11.9869 5.45449 12.1026 4.72164C12.1283 4.54164 12.2312 4.3745 12.3855 4.27164L13.1183 3.77022C14.674 2.70309 17.5668 0.710249 19.0711 0.0802548C20.0097 -0.305456 25.4353 0.787391 28.5853 1.48167C28.6753 1.50738 28.7653 1.54596 28.8424 1.59738C28.9967 1.7131 29.1382 1.82881 29.2667 1.95738L31.6581 0.851676C32.481 0.465966 33.3938 0.440252 34.2424 0.761677C35.091 1.0831 35.7467 1.7131 36.1195 2.53594L38.2795 7.4859C38.9995 9.1316 38.2538 11.0859 36.6338 11.8444L34.551 12.8087C34.4481 12.8601 34.3581 12.873 34.2681 12.873ZM15.6126 25.7686C14.9312 25.7686 14.2497 25.5114 13.7355 24.9843C13.234 24.4829 12.964 23.8143 12.9769 23.12C12.9898 22.4258 13.2597 21.7572 13.7612 21.2558L14.2369 20.7929C15.2654 19.7772 16.9369 19.7901 17.9526 20.8058L17.5026 21.2686L17.9526 20.8186C18.454 21.32 18.724 21.9758 18.724 22.6829C18.724 23.39 18.4411 24.0457 17.9397 24.5472L17.464 25.01C16.9497 25.5114 16.2811 25.7686 15.6126 25.7686ZM16.0754 21.32C15.7283 21.32 15.394 21.4486 15.124 21.7058L14.6483 22.1686C14.396 22.4202 14.2531 22.7611 14.2507 23.1174C14.2483 23.4737 14.3865 23.8165 14.6355 24.0715C15.1626 24.5986 16.0112 24.5986 16.5383 24.0843L17.014 23.6215C17.2711 23.3643 17.4126 23.03 17.4126 22.67C17.4126 22.31 17.2711 21.9758 17.0269 21.7186C16.7697 21.4486 16.4226 21.32 16.0754 21.32ZM5.6484 17.1415C4.96698 17.1415 4.28555 16.8844 3.77127 16.3701C3.26985 15.8687 2.99985 15.213 3.01271 14.5058C3.01271 13.7987 3.29556 13.143 3.79699 12.6416L4.2727 12.1659C5.30126 11.1501 6.97267 11.163 7.98837 12.1916L7.55124 12.6416L8.01409 12.1916C8.50266 12.693 8.77265 13.3487 8.77265 14.0558C8.77265 14.763 8.4898 15.4187 7.98837 15.9072L7.51266 16.3701C6.99838 16.8844 6.31696 17.1415 5.6484 17.1415ZM6.12411 12.693C5.78982 12.693 5.44268 12.8216 5.18554 13.0787L4.70984 13.5544C4.45269 13.8116 4.31127 14.1458 4.31127 14.5058C4.31127 14.8658 4.45269 15.2001 4.69698 15.4572C5.22412 15.9844 6.07268 15.9844 6.59982 15.4701L7.07553 15.0073C7.33267 14.7501 7.47409 14.4158 7.47409 14.0558C7.47409 13.6958 7.34552 13.3616 7.08838 13.1044C6.81839 12.8216 6.47125 12.693 6.12411 12.693Z" fill="white"/>
<path d="M8.12981 20.8955C7.44839 20.8955 6.77982 20.6383 6.26554 20.1241C5.76412 19.6226 5.49412 18.9669 5.49412 18.2598C5.49412 17.5527 5.77697 16.8969 6.26554 16.4084L7.67981 14.9941C8.18124 14.4927 8.79837 14.2227 9.54408 14.2355C10.0644 14.2379 10.5725 14.3942 11.0041 14.6847C11.4358 14.9753 11.7718 15.3871 11.9698 15.8684C12.1678 16.3496 12.2189 16.8787 12.1167 17.3889C12.0145 17.8991 11.7636 18.3677 11.3955 18.7355L9.98122 20.1369C9.46694 20.6512 8.79837 20.8955 8.12981 20.8955ZM9.54408 15.5212C9.18408 15.5212 8.8498 15.6627 8.59266 15.907L7.17839 17.3084C6.92125 17.5655 6.77982 17.8998 6.77982 18.2598C6.77982 18.6198 6.92125 18.9541 7.16553 19.2112C7.69267 19.7383 8.54123 19.7384 9.06837 19.2241L10.4826 17.8227C11.0098 17.2955 11.0098 16.447 10.4955 15.9198C10.2512 15.6627 9.90408 15.5212 9.54408 15.5212Z" fill="white"/>
<path d="M11.8712 23.3386C11.1898 23.3386 10.5212 23.0815 10.0069 22.5672C9.50551 22.0658 9.23551 21.3972 9.23551 20.7029C9.23551 19.9958 9.51836 19.3401 10.0198 18.8515L10.9712 17.9129C11.3425 17.5482 11.8134 17.3014 12.3246 17.2037C12.8358 17.1059 13.3645 17.1616 13.8442 17.3636C14.3238 17.5657 14.733 17.905 15.0202 18.3391C15.3074 18.7731 15.4599 19.2824 15.4583 19.8029C15.4583 20.5101 15.1754 21.1658 14.674 21.6672L13.7355 22.6057C13.2083 23.0815 12.5398 23.3386 11.8712 23.3386ZM12.8098 18.4272C12.4626 18.4272 12.1283 18.5558 11.8583 18.8129L10.9069 19.7515C10.6498 20.0086 10.5084 20.3429 10.5084 20.7029C10.5084 21.0629 10.6498 21.3972 10.8941 21.6543C11.4212 22.1815 12.2698 22.1943 12.7969 21.6672L13.7355 20.7286C13.9926 20.4715 14.134 20.1372 14.134 19.7772C14.134 19.4172 13.9926 19.0829 13.7483 18.8258C13.6285 18.6974 13.483 18.5955 13.3213 18.5269C13.1597 18.4582 12.9854 18.4243 12.8098 18.4272Z" fill="white"/>
</svg>
