<svg width="31" height="38" viewBox="0 0 31 38" fill="none" xmlns="http://www.w3.org/2000/svg">
<path d="M15.0422 15.8683V17.1854H14.6031C12.9084 17.1854 11.5298 18.564 11.5298 20.2588C11.5298 21.9535 12.9084 23.3321 14.6031 23.3321H16.3593C16.9416 23.3321 17.4999 23.5634 17.9116 23.9751C18.3233 24.3868 18.5546 24.9452 18.5546 25.5274C18.5546 26.1096 18.3233 26.668 17.9116 27.0797C17.4999 27.4913 16.9416 27.7226 16.3593 27.7226H11.9688C11.723 27.7226 11.5298 27.9158 11.5298 28.1617C11.5298 28.4076 11.723 28.6007 11.9688 28.6007H15.0422V29.9179C15.0422 30.1638 15.2354 30.3569 15.4812 30.3569C15.7271 30.3569 15.9203 30.1638 15.9203 29.9179V28.6007H16.3593C18.0541 28.6007 19.4327 27.2221 19.4327 25.5274C19.4327 23.8326 18.0541 22.454 16.3593 22.454H14.6031C14.0209 22.454 13.4625 22.2227 13.0509 21.811C12.6392 21.3994 12.4079 20.841 12.4079 20.2588C12.4079 19.6765 12.6392 19.1182 13.0509 18.7065C13.4625 18.2948 14.0209 18.0635 14.6031 18.0635H18.9936C19.2395 18.0635 19.4327 17.8703 19.4327 17.6245C19.4327 17.3786 19.2395 17.1854 18.9936 17.1854H15.9203V15.8683C15.9203 15.6224 15.7271 15.4292 15.4812 15.4292C15.2354 15.4292 15.0422 15.6312 15.0422 15.8683Z" fill="white" stroke="white" stroke-width="0.5"/>
<path d="M15.8325 1.16464C15.6656 0.945119 15.2968 0.945119 15.1388 1.16464L1.08914 19.5433C1.03974 19.6091 1.00955 19.6872 1.00192 19.7691C0.994288 19.8509 1.00952 19.9333 1.04593 20.007C1.08233 20.0807 1.13848 20.1429 1.20812 20.1866C1.27776 20.2303 1.35817 20.2539 1.44038 20.2546H6.26994V36.5609C6.26994 36.8068 6.46313 37 6.709 37H24.271C24.5169 37 24.7101 36.8068 24.7101 36.5609V20.2458H29.5309C29.6977 20.2458 29.847 20.1492 29.926 19.9999C29.9963 19.8507 29.9787 19.675 29.8821 19.5345L15.8325 1.16464ZM24.2623 19.3677C24.0164 19.3677 23.8232 19.5609 23.8232 19.8068V36.1131H7.13927V19.8068C7.13927 19.5609 6.94608 19.3677 6.70021 19.3677H2.31848L15.4812 2.1569L28.644 19.3765H24.2623V19.3677Z" fill="white" stroke="white" stroke-width="0.5"/>
</svg>
