<svg width="32" height="30" viewBox="0 0 32 30" fill="none" xmlns="http://www.w3.org/2000/svg">
<path d="M15.8032 0C7.08922 0 0 7.08922 0 15.8032C0 21.685 3.24231 27.0465 8.46151 29.7955C8.91413 30.0338 9.47409 29.8601 9.71256 29.4077C9.95084 28.9551 9.77719 28.3952 9.32458 28.1569C4.71522 25.7292 1.85194 20.9956 1.85194 15.8032C1.85194 8.11045 8.11045 1.85194 15.8032 1.85194C23.496 1.85194 29.7545 8.11045 29.7545 15.8032C29.7545 21.0803 26.8232 25.849 22.1046 28.2486C21.6489 28.4803 21.4673 29.0379 21.6991 29.4936C21.8625 29.815 22.1878 30 22.5252 30C22.6665 30 22.8097 29.9677 22.9443 29.8992C25.5066 28.5963 27.6701 26.618 29.2003 24.1784C30.7745 21.6687 31.6064 18.7728 31.6064 15.8032C31.6064 7.08922 24.5172 0 15.8032 0Z" fill="white"/>
<path d="M25.0965 21.6467C26.2002 19.8973 26.7835 17.8765 26.7835 15.8032C26.7835 9.74874 21.8577 4.82275 15.8032 4.82275C9.74851 4.82275 4.82277 9.74874 4.82277 15.8032C4.82277 17.8765 5.40613 19.897 6.50977 21.6467C7.58284 23.3472 9.09792 24.7222 10.8915 25.6229C11.3487 25.8522 11.9052 25.6677 12.1346 25.2108C12.3639 24.7536 12.1796 24.197 11.7225 23.9677C8.60888 22.4044 6.67471 19.2761 6.67471 15.8032C6.67471 10.7697 10.7697 6.6747 15.8032 6.6747C20.8365 6.6747 24.9315 10.7697 24.9315 15.8032C24.9315 19.2761 22.9974 22.4046 19.8838 23.9677C19.4266 24.1973 19.2421 24.7536 19.4717 25.2108C19.6342 25.5344 19.9607 25.7215 20.3 25.7215C20.4441 25.7214 20.5861 25.6876 20.7148 25.6229C22.51 24.7209 24.025 23.3461 25.0965 21.6467Z" fill="white"/>
<path d="M21.9607 15.803C21.9607 12.4077 19.1985 9.64551 15.8032 9.64551C12.408 9.64551 9.64577 12.4077 9.64577 15.803C9.64577 18.1459 10.9498 20.2561 13.049 21.3096C13.1775 21.3744 13.3195 21.4082 13.4635 21.4082C13.8028 21.4082 14.1293 21.2211 14.2918 20.8975C14.5211 20.4403 14.3366 19.884 13.8797 19.6545C12.4105 18.917 11.4977 17.4413 11.4977 15.803C11.4977 13.429 13.4292 11.4975 15.8032 11.4975C18.1772 11.4975 20.1088 13.429 20.1088 15.803C20.1088 17.441 19.1963 18.9168 17.727 19.6542C17.2701 19.8837 17.0856 20.4401 17.3149 20.8972C17.5445 21.3542 18.1011 21.5387 18.558 21.3094C20.6569 20.2556 21.9607 18.1456 21.9607 15.803Z" fill="white"/>
</svg>
