<svg width="60" height="56" viewBox="0 0 60 56" fill="none" xmlns="http://www.w3.org/2000/svg">
<rect y="0.0217285" width="60" height="55" fill="url(#paint0_linear_4_1002)"/>
<path d="M42.8689 17.8796C43.4822 16.1828 41.8381 14.5386 40.1414 15.1534L19.4053 22.6532C17.703 23.2694 17.4971 25.5923 19.0631 26.4996L25.6822 30.3319L31.5928 24.4209C31.8606 24.1623 32.2193 24.0192 32.5915 24.0224C32.9638 24.0256 33.3199 24.175 33.5831 24.4382C33.8464 24.7015 33.9957 25.0576 33.9989 25.4299C34.0022 25.8022 33.8591 26.1608 33.6004 26.4286L27.6898 32.3396L31.5233 38.959C32.4291 40.5251 34.7519 40.3178 35.3681 38.6168L42.8689 17.8796Z" fill="white"/>
<defs>
<linearGradient id="paint0_linear_4_1002" x1="1.90476" y1="58.0217" x2="66.8507" y2="13.0375" gradientUnits="userSpaceOnUse">
<stop stop-color="#10C1FF"/>
<stop offset="1" stop-color="#FF0DCA"/>
</linearGradient>
</defs>
</svg>
