<svg width="21" height="22" viewBox="0 0 21 22" fill="none" xmlns="http://www.w3.org/2000/svg">
<path d="M5.09597 3.1999L10.5 8.6039L15.876 3.2279C15.9947 3.1015 16.1378 3.00039 16.2965 2.93063C16.4553 2.86086 16.6266 2.82388 16.8 2.8219C17.1713 2.8219 17.5274 2.9694 17.7899 3.23195C18.0525 3.4945 18.2 3.8506 18.2 4.2219C18.2032 4.39354 18.1714 4.56404 18.1064 4.72293C18.0414 4.88183 17.9446 5.02576 17.822 5.1459L12.376 10.5219L17.822 15.9679C18.0527 16.1936 18.188 16.4993 18.2 16.8219C18.2 17.1932 18.0525 17.5493 17.7899 17.8118C17.5274 18.0744 17.1713 18.2219 16.8 18.2219C16.6215 18.2293 16.4435 18.1995 16.2772 18.1344C16.1109 18.0694 15.96 17.9704 15.834 17.8439L10.5 12.4399L5.10997 17.8299C4.99168 17.9521 4.85036 18.0496 4.69417 18.1169C4.53799 18.1842 4.37002 18.2199 4.19997 18.2219C3.82867 18.2219 3.47257 18.0744 3.21002 17.8118C2.94747 17.5493 2.79997 17.1932 2.79997 16.8219C2.79671 16.6503 2.82855 16.4798 2.89355 16.3209C2.95856 16.162 3.05534 16.018 3.17797 15.8979L8.62397 10.5219L3.17797 5.0759C2.94723 4.85016 2.81193 4.54448 2.79997 4.2219C2.79997 3.8506 2.94747 3.4945 3.21002 3.23195C3.47257 2.9694 3.82867 2.8219 4.19997 2.8219C4.53597 2.8261 4.85797 2.9619 5.09597 3.1999Z" fill="white"/>
</svg>
