<svg width="1600" height="670" viewBox="0 0 1600 670" fill="none" xmlns="http://www.w3.org/2000/svg">
<g opacity="0.7">
<path d="M1347.67 937.826C1338.98 972.128 1314.67 1000.79 1278.07 1023.23C1241.46 1045.68 1192.59 1061.89 1134.85 1071.28C1019.37 1090.07 868.52 1081.6 709.684 1041.37C550.848 1001.15 414.146 936.81 321.527 865.322C275.218 829.578 239.949 792.062 218.439 754.899C196.93 717.739 189.192 680.964 197.879 646.661C206.566 612.359 230.874 583.698 267.476 561.254C304.081 538.808 352.955 522.6 410.695 513.204C526.175 494.414 677.024 502.892 835.86 543.115C994.696 583.337 1131.4 647.677 1224.02 719.165C1270.33 754.909 1305.6 792.425 1327.11 829.588C1348.61 866.748 1356.35 903.523 1347.67 937.826Z" stroke="url(#paint0_linear_4_428)"/>
<path d="M1608.27 1003.82C1595.63 1053.73 1560.27 1095.42 1507.05 1128.05C1453.83 1160.68 1382.79 1184.24 1298.88 1197.89C1131.06 1225.2 911.855 1212.88 681.054 1154.43C450.254 1095.98 251.604 1002.49 117.006 898.602C49.7065 846.656 -1.55991 792.127 -32.8326 738.099C-64.1036 684.073 -75.3675 630.58 -62.7279 580.667C-50.0883 530.755 -14.7221 489.07 38.4931 456.439C91.711 423.807 162.752 400.25 246.663 386.596C414.484 359.289 633.689 371.611 864.49 430.057C1095.29 488.504 1293.94 581.997 1428.54 685.886C1495.84 737.832 1547.1 792.361 1578.38 846.389C1609.65 900.414 1620.91 953.908 1608.27 1003.82Z" stroke="url(#paint1_linear_4_428)"/>
<path d="M1925.38 1084.12C1907.93 1153.03 1859.11 1210.56 1785.68 1255.59C1712.25 1300.62 1614.23 1333.12 1498.48 1351.95C1266.97 1389.62 964.585 1372.62 646.217 1292C327.849 1211.38 53.8209 1082.41 -131.858 939.096C-224.698 867.437 -295.431 792.205 -338.582 717.655C-381.732 643.107 -397.287 569.272 -379.837 500.365C-362.388 431.457 -313.566 373.924 -240.136 328.898C-166.704 283.871 -68.6897 251.372 47.0666 232.536C278.578 194.866 580.959 211.865 899.327 292.487C1217.7 373.108 1491.72 502.075 1677.4 645.392C1770.24 717.051 1840.97 792.283 1884.13 866.833C1927.28 941.38 1942.83 1015.22 1925.38 1084.12Z" stroke="url(#paint2_linear_4_428)"/>
</g>
<defs>
<linearGradient id="paint0_linear_4_428" x1="237.696" y1="626.795" x2="1233.76" y2="1040.02" gradientUnits="userSpaceOnUse">
<stop stop-color="#484848"/>
<stop offset="0.491388" stop-color="#484848" stop-opacity="0.36"/>
<stop offset="1" stop-color="#484848"/>
</linearGradient>
<linearGradient id="paint1_linear_4_428" x1="-4.65694" y1="551.859" x2="1442.55" y2="1152.25" gradientUnits="userSpaceOnUse">
<stop stop-color="#484848"/>
<stop offset="0.491388" stop-color="#484848" stop-opacity="0.36"/>
<stop offset="1" stop-color="#484848"/>
</linearGradient>
<linearGradient id="paint2_linear_4_428" x1="-299.555" y1="460.676" x2="1696.61" y2="1288.81" gradientUnits="userSpaceOnUse">
<stop stop-color="#484848"/>
<stop offset="0.491388" stop-color="#484848" stop-opacity="0.36"/>
<stop offset="1" stop-color="#484848"/>
</linearGradient>
</defs>
</svg>
