<svg width="14" height="10" viewBox="0 0 14 10" fill="none" xmlns="http://www.w3.org/2000/svg">
<path fill-rule="evenodd" clip-rule="evenodd" d="M13.353 0.182319C13.4259 0.246188 13.4855 0.323924 13.5281 0.411005C13.5708 0.498086 13.5957 0.592776 13.6014 0.689568C13.6071 0.78636 13.5935 0.883323 13.5614 0.974819C13.5293 1.06632 13.4794 1.15052 13.4144 1.22253L5.7233 9.75858C5.65806 9.83086 5.57905 9.8894 5.49089 9.93076C5.40273 9.97211 5.30721 9.99545 5.20991 9.9994C5.11262 10.0033 5.01552 9.98783 4.9243 9.95377C4.83308 9.9197 4.74958 9.86776 4.67869 9.801L0.228158 5.61162C0.094641 5.48414 0.0138002 5.31121 0.00161036 5.127C-0.0105795 4.9428 0.0467685 4.76073 0.162322 4.61676C0.224695 4.53871 0.302279 4.47415 0.390364 4.427C0.478449 4.37985 0.575198 4.35109 0.674736 4.34247C0.774275 4.33385 0.874528 4.34555 0.969407 4.37685C1.06429 4.40816 1.15181 4.45842 1.22668 4.52459L4.67942 7.6306C4.82359 7.76036 5.01339 7.82755 5.20708 7.8174C5.40078 7.80724 5.58251 7.72058 5.71232 7.57647L12.3274 0.241571C12.4562 0.0988071 12.636 0.0124746 12.8279 0.00124909C13.0198 -0.00997641 13.2085 0.0548074 13.353 0.181587V0.182319Z" fill="#FD2BDE"/>
</svg>
