<svg width="46" height="46" viewBox="0 0 46 46" fill="none" xmlns="http://www.w3.org/2000/svg">
<g filter="url(#filter0_b_2005_4)">
<path d="M0 22.9399C0 10.2705 10.3307 0 23 0C35.6693 0 46 10.2705 46 22.9399C46 35.6092 35.6693 45.8797 23 45.8797C10.3307 45.8797 0 35.6092 0 22.9399Z" fill="url(#paint0_radial_2005_4)"/>
<path d="M0.5 22.9399C0.5 10.5484 10.6051 0.5 23 0.5C35.3949 0.5 45.5 10.5484 45.5 22.9399C45.5 35.3313 35.3949 45.3797 23 45.3797C10.6051 45.3797 0.5 35.3313 0.5 22.9399Z" stroke="url(#paint1_radial_2005_4)"/>
<path d="M0.5 22.9399C0.5 10.5484 10.6051 0.5 23 0.5C35.3949 0.5 45.5 10.5484 45.5 22.9399C45.5 35.3313 35.3949 45.3797 23 45.3797C10.6051 45.3797 0.5 35.3313 0.5 22.9399Z" stroke="url(#paint2_radial_2005_4)"/>
<path d="M0.5 22.9399C0.5 10.5484 10.6051 0.5 23 0.5C35.3949 0.5 45.5 10.5484 45.5 22.9399C45.5 35.3313 35.3949 45.3797 23 45.3797C10.6051 45.3797 0.5 35.3313 0.5 22.9399Z" stroke="url(#paint3_radial_2005_4)"/>
</g>
<circle cx="22.5" cy="22.5" r="11.5" fill="url(#paint4_linear_2005_4)"/>
<defs>
<filter id="filter0_b_2005_4" x="-5" y="-5" width="56" height="55.8799" filterUnits="userSpaceOnUse" color-interpolation-filters="sRGB">
<feFlood flood-opacity="0" result="BackgroundImageFix"/>
<feGaussianBlur in="BackgroundImageFix" stdDeviation="2.5"/>
<feComposite in2="SourceAlpha" operator="in" result="effect1_backgroundBlur_2005_4"/>
<feBlend mode="normal" in="SourceGraphic" in2="effect1_backgroundBlur_2005_4" result="shape"/>
</filter>
<radialGradient id="paint0_radial_2005_4" cx="0" cy="0" r="1" gradientUnits="userSpaceOnUse" gradientTransform="translate(3.84792) rotate(47.9449) scale(68.6726 49.8957)">
<stop stop-color="white" stop-opacity="0.36"/>
<stop offset="1" stop-color="white" stop-opacity="0"/>
</radialGradient>
<radialGradient id="paint1_radial_2005_4" cx="0" cy="0" r="1" gradientUnits="userSpaceOnUse" gradientTransform="translate(-24.493 4.69361) rotate(35.0407) scale(52.9869 31.2732)">
<stop stop-color="white"/>
<stop offset="1" stop-color="white" stop-opacity="0.06"/>
</radialGradient>
<radialGradient id="paint2_radial_2005_4" cx="0" cy="0" r="1" gradientUnits="userSpaceOnUse" gradientTransform="translate(59.4671 30.7054) rotate(161.385) scale(38.4346 25.9776)">
<stop stop-color="#8470FF"/>
<stop offset="1" stop-color="#865CFF" stop-opacity="0"/>
</radialGradient>
<radialGradient id="paint3_radial_2005_4" cx="0" cy="0" r="1" gradientUnits="userSpaceOnUse" gradientTransform="translate(23.5008 -10.4857) rotate(47.2149) scale(25.6697 18.4505)">
<stop/>
<stop offset="1" stop-color="white" stop-opacity="0"/>
</radialGradient>
<linearGradient id="paint4_linear_2005_4" x1="13.5" y1="15.5" x2="31.5" y2="31" gradientUnits="userSpaceOnUse">
<stop stop-color="#53C5F7"/>
<stop offset="1" stop-color="#FF47D6"/>
</linearGradient>
</defs>
</svg>
