<svg width="1101" height="1112" viewBox="0 0 1101 1112" fill="none" xmlns="http://www.w3.org/2000/svg">
<g style="mix-blend-mode:screen" opacity="0.3">
<path opacity="0.0344828" d="M176.532 638.363C178.244 644.264 182.515 649.352 189.239 653.611C195.97 657.873 205.104 661.269 216.414 663.779C239.032 668.8 270.138 670.239 307.553 668.183C382.367 664.072 482.179 646.004 589.24 614.938C696.301 583.872 790.281 545.708 855.675 509.134C888.379 490.843 913.884 472.977 930.302 456.63C938.511 448.455 944.409 440.698 947.813 433.494C951.213 426.298 952.097 419.714 950.385 413.814C948.673 407.914 944.401 402.825 937.678 398.567C930.947 394.304 921.812 390.909 910.503 388.398C887.885 383.377 856.779 381.939 819.363 383.994C744.55 388.105 644.738 406.173 537.677 437.239C430.615 468.305 336.635 506.47 271.241 543.043C238.537 561.334 213.032 579.2 196.615 595.548C188.406 603.722 182.507 611.479 179.104 618.683C175.704 625.879 174.82 632.463 176.532 638.363Z" stroke="url(#paint0_linear_4_77)" stroke-width="2"/>
<path opacity="0.0689655" d="M186.487 674.608C188.707 680.336 193.406 685.033 200.475 688.689C207.552 692.35 216.948 694.936 228.433 696.451C251.402 699.481 282.516 698.203 319.609 692.895C393.78 682.279 491.637 655.581 595.584 615.302C699.53 575.023 789.826 528.813 851.784 486.679C882.769 465.607 906.62 445.586 921.55 427.87C929.015 419.012 934.216 410.77 936.978 403.297C939.738 395.832 940.045 389.195 937.825 383.467C935.605 377.738 930.907 373.042 923.838 369.385C916.761 365.725 907.365 363.139 895.88 361.624C872.91 358.594 841.797 359.871 804.703 365.18C730.532 375.796 632.675 402.494 528.729 442.773C424.783 483.052 334.487 529.262 272.529 571.396C241.544 592.468 217.693 612.488 202.763 630.205C195.297 639.063 190.097 647.305 187.334 654.778C184.575 662.243 184.268 668.879 186.487 674.608Z" stroke="url(#paint1_linear_4_77)" stroke-width="2"/>
<path opacity="0.103448" d="M199.302 709.746C202.013 715.259 207.103 719.528 214.464 722.555C221.832 725.584 231.418 727.341 242.992 727.85C266.138 728.867 297.021 724.882 333.511 716.361C406.475 699.321 501.632 664.196 601.673 615.011C701.713 565.825 787.638 511.921 845.687 464.548C874.718 440.855 896.734 418.832 910.063 399.882C916.728 390.407 921.19 381.743 923.291 374.058C925.389 366.381 925.117 359.743 922.406 354.229C919.696 348.716 914.605 344.447 907.244 341.42C899.876 338.391 890.29 336.634 878.716 336.125C855.57 335.108 824.687 339.093 788.197 347.615C715.233 364.654 620.076 399.779 520.036 448.965C419.995 498.15 334.07 552.054 276.021 599.428C246.99 623.12 224.974 645.143 211.645 664.093C204.981 673.568 200.518 682.232 198.418 689.917C196.319 697.594 196.591 704.233 199.302 709.746Z" stroke="url(#paint2_linear_4_77)" stroke-width="2"/>
<path opacity="0.137931" d="M214.868 743.531C218.049 748.787 223.492 752.596 231.088 754.97C238.693 757.345 248.396 758.26 259.969 757.758C283.116 756.754 313.535 750.093 349.143 738.423C420.344 715.09 512.078 671.804 607.451 614.087C702.824 556.37 783.724 495.182 837.423 442.929C864.279 416.797 884.291 392.939 895.918 372.9C901.731 362.879 905.421 353.859 906.844 346.02C908.266 338.19 907.416 331.601 904.235 326.345C901.054 321.089 895.611 317.279 888.015 314.906C880.41 312.53 870.708 311.615 859.134 312.117C835.987 313.122 805.568 319.783 769.96 331.452C698.759 354.786 607.025 398.071 511.652 455.788C416.28 513.505 335.38 574.693 281.68 626.946C254.824 653.078 234.812 676.936 223.186 696.976C217.372 706.996 213.682 716.016 212.259 723.855C210.837 731.686 211.687 738.275 214.868 743.531Z" stroke="url(#paint3_linear_4_77)" stroke-width="2"/>
<path opacity="0.172414" d="M233.058 775.728C236.684 780.687 242.439 784.007 250.213 785.709C257.996 787.413 267.741 787.479 279.227 785.97C302.198 782.953 331.921 773.665 366.377 758.937C435.273 729.487 522.885 678.371 612.865 612.561C702.844 546.751 778.104 478.745 827.045 422.011C851.521 393.638 869.377 368.126 879.213 347.15C884.131 336.661 887.021 327.354 887.756 319.42C888.489 311.496 887.068 305.006 883.441 300.047C879.815 295.088 874.06 291.768 866.286 290.065C858.503 288.362 848.758 288.296 837.272 289.805C814.301 292.822 784.578 302.109 750.123 316.838C681.226 346.288 593.614 397.404 503.634 463.214C413.655 529.023 338.396 597.03 289.454 653.764C264.978 682.137 247.122 707.649 237.286 728.625C232.368 739.114 229.478 748.421 228.744 756.354C228.01 764.279 229.431 770.769 233.058 775.728Z" stroke="url(#paint4_linear_4_77)" stroke-width="2"/>
<path opacity="0.206897" d="M253.722 806.115C257.767 810.739 263.789 813.546 271.682 814.564C279.584 815.583 289.298 814.799 300.609 812.295C323.229 807.286 352.029 795.444 385.07 777.769C451.137 742.426 533.961 683.869 617.863 610.467C701.764 537.065 770.81 462.759 814.62 401.975C836.53 371.577 852.095 344.606 860.066 322.852C864.051 311.974 866.119 302.451 866.159 294.484C866.199 286.525 864.218 280.184 860.173 275.56C856.127 270.936 850.106 268.129 842.212 267.111C834.311 266.092 824.597 266.876 813.286 269.38C790.665 274.389 761.865 286.231 728.824 303.906C662.757 339.249 579.933 397.806 496.032 471.208C412.13 544.61 343.084 618.916 299.274 679.7C277.364 710.098 261.799 737.069 253.829 758.823C249.844 769.701 247.776 779.225 247.736 787.192C247.696 795.15 249.677 801.492 253.722 806.115Z" stroke="url(#paint5_linear_4_77)" stroke-width="2"/>
<path opacity="0.241379" d="M276.693 834.485C281.126 838.738 287.37 841.009 295.322 841.335C303.282 841.662 312.891 840.035 323.94 836.554C346.038 829.593 373.697 815.286 405.071 794.798C467.807 753.832 545.212 688.279 622.397 607.844C699.582 527.409 761.888 447.368 800.234 382.997C819.411 350.804 832.566 322.58 838.61 300.214C841.633 289.03 842.862 279.363 842.208 271.422C841.554 263.491 839.028 257.346 834.595 253.092C830.163 248.839 823.919 246.568 815.967 246.242C808.007 245.915 798.398 247.542 787.348 251.023C765.251 257.984 737.592 272.291 706.218 292.779C643.482 333.745 566.077 399.298 488.892 479.733C411.707 560.168 349.4 640.209 311.054 704.58C291.877 736.773 278.722 764.997 272.678 787.363C269.656 798.547 268.426 808.214 269.081 816.155C269.734 824.086 272.261 830.231 276.693 834.485Z" stroke="url(#paint6_linear_4_77)" stroke-width="2"/>
<path opacity="0.275862" d="M301.789 860.639C306.576 864.49 312.994 866.208 320.944 865.84C328.902 865.471 338.333 863.013 349.037 858.583C370.444 849.722 396.75 833.059 426.22 809.915C485.146 763.636 556.543 691.586 626.424 604.73C696.305 517.875 751.398 432.707 783.988 365.239C800.287 331.498 810.932 302.234 815.003 279.427C817.039 268.022 817.422 258.284 816.078 250.431C814.735 242.587 811.683 236.686 806.897 232.834C802.11 228.983 795.692 227.265 787.742 227.633C779.784 228.002 770.353 230.46 759.649 234.891C738.242 243.751 711.936 260.414 682.466 283.559C623.54 329.837 552.143 401.887 482.262 488.743C412.381 575.599 357.287 660.766 324.698 728.234C308.399 761.975 297.754 791.239 293.683 814.047C291.647 825.451 291.264 835.189 292.608 843.042C293.95 850.887 297.003 856.788 301.789 860.639Z" stroke="url(#paint7_linear_4_77)" stroke-width="2"/>
<path opacity="0.310345" d="M328.807 884.406C333.911 887.825 340.454 888.977 348.342 887.918C356.238 886.857 365.418 883.586 375.695 878.239C396.249 867.547 421.002 848.654 448.343 823.03C503.011 771.791 567.857 693.793 629.902 601.177C691.947 508.562 739.408 418.917 765.994 348.865C779.289 313.832 787.343 283.751 789.412 260.676C790.446 249.137 789.978 239.403 787.955 231.697C785.934 223.999 782.379 218.387 777.275 214.967C772.171 211.548 765.628 210.396 757.74 211.455C749.844 212.516 740.664 215.787 730.387 221.134C709.833 231.826 685.079 250.719 657.739 276.343C603.071 327.582 538.224 405.58 476.179 498.196C414.135 590.811 366.674 680.456 340.088 750.508C326.792 785.541 318.738 815.622 316.67 838.697C315.636 850.236 316.103 859.97 318.127 867.676C320.148 875.374 323.703 880.986 328.807 884.406Z" stroke="url(#paint8_linear_4_77)" stroke-width="2"/>
<path opacity="0.344828" d="M357.531 905.625C362.913 908.587 369.532 909.164 377.297 907.421C385.071 905.676 393.931 901.618 403.703 895.396C423.246 882.953 446.259 861.975 471.262 834.065C521.257 778.257 579.059 694.903 632.795 597.232C686.532 499.562 726 406.121 746.379 334.019C756.57 297.96 761.972 267.292 762.021 244.124C762.046 232.54 760.732 222.883 758.045 215.383C755.36 207.891 751.33 202.609 745.947 199.648C740.564 196.686 733.946 196.109 726.18 197.852C718.407 199.597 709.547 203.655 699.774 209.877C680.231 222.32 657.218 243.298 632.215 271.208C582.22 327.016 524.419 410.37 470.682 508.041C416.945 605.711 377.478 699.152 357.099 771.254C346.907 807.313 341.506 837.981 341.456 861.149C341.432 872.733 342.746 882.39 345.433 889.89C348.117 897.382 352.148 902.664 357.531 905.625Z" stroke="url(#paint9_linear_4_77)" stroke-width="2"/>
<path opacity="0.37931" d="M387.732 924.16C393.352 926.641 399.996 926.639 407.58 924.226C415.172 921.81 423.645 916.995 432.837 909.945C451.222 895.846 472.319 872.942 494.794 842.959C539.735 783.006 590.051 694.932 635.071 592.949C680.091 490.967 711.264 394.442 725.281 320.838C732.292 284.028 735 253.006 733.03 229.922C732.045 218.379 729.894 208.874 726.563 201.637C723.236 194.407 718.761 189.497 713.14 187.016C707.52 184.535 700.876 184.536 693.292 186.949C685.7 189.365 677.228 194.181 668.035 201.23C649.65 215.329 628.553 238.233 606.078 268.216C561.138 328.169 510.821 416.243 465.801 518.226C420.781 620.209 389.608 716.733 375.591 790.337C368.581 827.147 365.872 858.169 367.842 881.253C368.828 892.796 370.978 902.301 374.309 909.539C377.636 916.768 382.112 921.678 387.732 924.16Z" stroke="url(#paint10_linear_4_77)" stroke-width="2"/>
<path opacity="0.413793" d="M419.172 939.888C424.987 941.87 431.605 941.29 438.95 938.225C446.302 935.156 454.323 929.621 462.866 921.797C479.952 906.149 498.973 881.493 518.749 849.666C558.294 786.024 600.743 693.9 636.703 588.382C672.663 482.863 695.305 383.989 702.854 309.444C706.629 272.163 706.623 241.023 702.649 218.198C700.661 206.785 697.69 197.504 693.742 190.584C689.797 183.671 684.911 179.17 679.095 177.188C673.28 175.207 666.662 175.787 659.317 178.852C651.965 181.921 643.944 187.456 635.401 195.28C618.315 210.928 599.294 235.584 579.518 267.411C539.973 331.053 497.524 423.177 461.564 528.695C425.604 634.214 402.962 733.088 395.413 807.633C391.638 844.914 391.644 876.054 395.618 898.879C397.606 910.292 400.577 919.573 404.525 926.493C408.47 933.405 413.356 937.907 419.172 939.888Z" stroke="url(#paint11_linear_4_77)" stroke-width="2"/>
<path opacity="0.448276" d="M451.601 952.715C457.566 954.182 464.109 953.027 471.159 949.333C478.216 945.636 485.724 939.422 493.552 930.883C509.209 913.806 526.009 887.586 542.936 854.156C576.783 787.31 611.042 691.837 637.668 583.586C664.295 475.335 678.233 374.864 679.256 299.944C679.768 262.476 677.048 231.455 671.1 209.064C668.125 197.867 664.356 188.88 659.82 182.331C655.288 175.789 650.027 171.73 644.062 170.263C638.096 168.795 631.553 169.951 624.504 173.644C617.447 177.342 609.939 183.555 602.11 192.094C586.453 209.171 569.654 235.391 552.726 268.821C518.879 335.667 484.621 431.14 457.994 539.391C431.368 647.642 417.429 748.114 416.406 823.033C415.894 860.501 418.614 891.522 424.563 913.914C427.537 925.11 431.306 934.097 435.843 940.647C440.375 947.189 445.635 951.247 451.601 952.715Z" stroke="url(#paint12_linear_4_77)" stroke-width="2"/>
<path opacity="0.482759" d="M484.763 962.561C490.834 963.503 497.251 961.782 503.952 957.488C510.66 953.19 517.597 946.346 524.652 937.157C538.761 918.78 553.211 891.196 567.16 856.418C595.053 786.876 620.86 688.78 637.95 578.621C655.041 468.461 660.17 367.157 654.659 292.433C651.904 255.063 646.491 224.398 638.613 202.61C634.674 191.715 630.136 183.091 625.046 176.962C619.961 170.839 614.367 167.255 608.296 166.313C602.225 165.371 595.808 167.092 589.107 171.386C582.399 175.685 575.462 182.529 568.407 191.718C554.298 210.094 539.848 237.679 525.898 272.457C498.006 341.998 472.199 440.094 455.108 550.254C438.018 660.414 432.889 761.717 438.399 836.441C441.155 873.811 446.568 904.477 454.446 926.265C458.385 937.159 462.923 945.784 468.013 951.913C473.098 958.035 478.692 961.62 484.763 962.561Z" stroke="url(#paint13_linear_4_77)" stroke-width="2"/>
<path opacity="0.517241" d="M518.394 969.38C524.524 969.789 530.766 967.516 537.068 962.654C543.376 957.787 549.69 950.365 555.917 940.596C568.371 921.059 580.362 892.321 591.227 856.459C612.952 784.751 630.112 684.779 637.536 573.549C644.961 462.319 641.241 360.954 629.239 286.995C623.236 250.007 615.171 219.93 605.425 198.912C600.551 188.402 595.279 180.206 589.674 174.544C584.075 168.888 578.19 165.804 572.06 165.395C565.93 164.986 559.687 167.26 553.386 172.121C547.078 176.988 540.764 184.411 534.536 194.18C522.083 213.716 510.092 242.455 499.227 278.317C477.501 350.024 460.342 449.996 452.918 561.226C445.493 672.456 449.213 773.822 461.215 847.781C467.217 884.768 475.283 914.846 485.029 935.864C489.903 946.374 495.175 954.57 500.78 960.232C506.379 965.888 512.264 968.971 518.394 969.38Z" stroke="url(#paint14_linear_4_77)" stroke-width="2"/>
<path opacity="0.551724" d="M552.23 973.138C558.372 973.012 564.393 970.203 570.246 964.81C576.106 959.412 581.75 951.467 587.102 941.193C597.805 920.646 607.246 890.971 614.944 854.299C630.337 780.971 638.718 679.884 636.42 568.43C634.122 456.976 621.581 356.321 603.179 283.689C593.976 247.365 583.32 218.105 571.779 198.016C566.008 187.971 560.041 180.266 553.964 175.114C547.893 169.968 541.762 167.409 535.62 167.536C529.477 167.662 523.457 170.471 517.603 175.864C511.743 181.262 506.1 189.207 500.748 199.481C490.044 220.028 480.603 249.703 472.905 286.375C457.513 359.704 449.132 460.79 451.43 572.244C453.728 683.698 466.268 784.353 484.67 856.985C493.874 893.309 504.529 922.569 516.071 942.658C521.842 952.703 527.808 960.408 533.886 965.56C539.956 970.707 546.088 973.265 552.23 973.138Z" stroke="url(#paint15_linear_4_77)" stroke-width="2"/>
<path opacity="0.586207" d="M586.003 973.832C592.11 973.171 597.863 969.848 603.225 963.966C608.592 958.077 613.521 949.671 617.958 938.969C626.83 917.567 633.648 887.183 638.121 849.979C647.064 775.588 646.603 674.156 634.599 563.326C622.596 452.497 601.331 353.317 576.668 282.566C564.334 247.182 551.169 218.963 537.921 199.956C531.296 190.452 524.681 183.296 518.178 178.693C511.681 174.096 505.35 172.081 499.243 172.743C493.135 173.404 487.382 176.727 482.021 182.609C476.654 188.497 471.724 196.904 467.288 207.606C458.416 229.008 451.597 259.392 447.124 296.596C438.181 370.987 438.643 472.419 450.646 583.249C462.649 694.078 483.914 793.258 508.577 864.009C520.911 899.393 534.076 927.612 547.325 946.619C553.949 956.123 560.564 963.279 567.067 967.882C573.564 972.479 579.895 974.494 586.003 973.832Z" stroke="url(#paint16_linear_4_77)" stroke-width="2"/>
<path opacity="0.62069" d="M619.445 971.476C625.472 970.285 630.913 966.473 635.742 960.146C640.575 953.813 644.753 945.009 648.24 933.961C655.213 911.867 659.357 881.004 660.57 843.552C662.996 768.665 653.696 667.659 632.079 558.297C610.462 448.935 580.634 351.987 549.899 283.654C534.528 249.48 518.953 222.515 504.098 204.736C496.671 195.845 489.457 189.293 482.577 185.275C475.705 181.261 469.223 179.806 463.196 180.997C457.169 182.188 451.727 186 446.899 192.327C442.066 198.66 437.887 207.465 434.401 218.512C427.428 240.606 423.283 271.469 422.07 308.921C419.645 383.809 428.945 484.815 450.562 594.176C472.178 703.538 502.007 800.487 532.742 868.819C548.113 902.993 563.688 929.958 578.542 947.738C585.97 956.628 593.184 963.18 600.063 967.199C606.936 971.213 613.418 972.668 619.445 971.476Z" stroke="url(#paint17_linear_4_77)" stroke-width="2"/>
<path opacity="0.655172" d="M652.293 966.114C658.193 964.402 663.281 960.131 667.54 953.407C671.803 946.677 675.198 937.542 677.708 926.232C682.729 903.614 684.168 872.508 682.112 835.093C678.002 760.279 659.934 660.468 628.868 553.406C597.801 446.345 559.637 352.365 523.063 286.971C504.772 254.267 486.906 228.762 470.559 212.344C462.385 204.135 454.627 198.237 447.424 194.833C440.228 191.433 433.643 190.549 427.743 192.261C421.843 193.973 416.754 198.245 412.496 204.968C408.233 211.699 404.838 220.834 402.327 232.143C397.307 254.761 395.868 285.868 397.924 323.283C402.034 398.097 420.102 497.908 451.168 604.969C482.234 712.031 520.399 806.011 556.973 871.405C575.263 904.109 593.129 929.614 609.477 946.031C617.651 954.24 625.408 960.139 632.612 963.542C639.808 966.942 646.392 967.827 652.293 966.114Z" stroke="url(#paint18_linear_4_77)" stroke-width="2"/>
<path opacity="0.689655" d="M684.286 957.806C690.015 955.587 694.711 950.888 698.368 943.819C702.028 936.742 704.614 927.346 706.129 915.861C709.159 892.892 707.882 861.778 702.573 824.684C691.958 750.513 665.259 652.657 624.98 548.71C584.701 444.764 538.491 354.468 496.357 292.51C475.285 261.525 455.265 237.674 437.549 222.744C428.69 215.278 420.448 210.078 412.975 207.316C405.51 204.556 398.874 204.249 393.145 206.468C387.417 208.688 382.72 213.387 379.064 220.456C375.403 227.533 372.817 236.929 371.302 248.414C368.272 271.383 369.55 302.497 374.859 339.59C385.474 413.761 412.172 511.618 452.451 615.565C492.73 719.511 538.94 809.807 581.074 871.765C602.146 902.75 622.167 926.601 639.883 941.531C648.741 948.996 656.983 954.197 664.456 956.959C671.921 959.719 678.558 960.026 684.286 957.806Z" stroke="url(#paint19_linear_4_77)" stroke-width="2"/>
<path opacity="0.724138" d="M715.172 946.639C720.685 943.929 724.954 938.839 727.981 931.478C731.01 924.109 732.767 914.523 733.276 902.95C734.293 879.804 730.308 848.92 721.787 812.43C704.747 739.467 669.622 644.309 620.437 544.269C571.251 444.228 517.347 358.304 469.974 300.254C446.281 271.223 424.258 249.208 405.308 235.879C395.833 229.214 387.169 224.752 379.484 222.651C371.807 220.552 365.169 220.825 359.655 223.535C354.142 226.246 349.873 231.336 346.846 238.697C343.817 246.066 342.06 255.651 341.551 267.225C340.534 290.371 344.519 321.255 353.041 357.744C370.08 430.708 405.205 525.866 454.391 625.906C503.576 725.946 557.48 811.871 604.854 869.921C628.546 898.952 650.569 920.967 669.519 934.296C678.994 940.961 687.658 945.423 695.343 947.524C703.02 949.622 709.659 949.35 715.172 946.639Z" stroke="url(#paint20_linear_4_77)" stroke-width="2"/>
<path opacity="0.758621" d="M744.704 932.721C749.96 929.541 753.77 924.097 756.143 916.501C758.519 908.896 759.434 899.194 758.931 887.62C757.927 864.473 751.266 834.054 739.597 798.446C716.263 727.246 672.978 635.511 615.261 540.139C557.543 444.766 496.355 363.866 444.103 310.166C417.971 283.31 394.112 263.298 374.073 251.672C364.053 245.858 355.033 242.168 347.194 240.745C339.363 239.323 332.774 240.173 327.518 243.354C322.262 246.535 318.452 251.978 316.079 259.575C313.703 267.179 312.788 276.882 313.291 288.455C314.295 311.602 320.956 342.021 332.625 377.629C355.959 448.83 399.244 540.564 456.961 635.937C514.679 731.31 575.867 812.21 628.119 865.909C654.251 892.765 678.11 912.777 698.149 924.404C708.169 930.217 717.189 933.908 725.028 935.331C732.859 936.752 739.448 935.902 744.704 932.721Z" stroke="url(#paint21_linear_4_77)" stroke-width="2"/>
<path opacity="0.793103" d="M772.649 916.179C777.608 912.553 780.929 906.798 782.631 899.024C784.335 891.241 784.401 881.496 782.892 870.01C779.874 847.039 770.587 817.316 755.858 782.86C726.408 713.964 675.292 626.352 609.482 536.372C543.673 446.393 475.667 371.134 418.933 322.192C390.559 297.716 365.048 279.86 344.071 270.024C333.582 265.106 324.275 262.216 316.342 261.481C308.417 260.748 301.927 262.169 296.968 265.796C292.009 269.422 288.689 275.177 286.987 282.951C285.283 290.734 285.217 300.479 286.726 311.965C289.744 334.936 299.031 364.659 313.759 399.114C343.21 468.011 394.325 555.623 460.135 645.603C525.945 735.582 593.951 810.841 650.685 859.783C679.058 884.259 704.57 902.115 725.547 911.951C736.035 916.869 745.343 919.759 753.276 920.494C761.201 921.227 767.691 919.806 772.649 916.179Z" stroke="url(#paint22_linear_4_77)" stroke-width="2"/>
<path opacity="0.827586" d="M798.784 897.163C803.408 893.118 806.215 887.096 807.233 879.203C808.252 871.301 807.468 861.587 804.964 850.277C799.955 827.656 788.113 798.856 770.438 765.815C735.095 699.748 676.538 616.924 603.136 533.022C529.734 449.121 455.428 380.075 394.644 336.265C364.246 314.355 337.275 298.79 315.521 290.82C304.643 286.834 295.119 284.767 287.152 284.726C279.194 284.686 272.852 286.667 268.229 290.713C263.605 294.758 260.798 300.78 259.78 308.673C258.761 316.575 259.545 326.289 262.049 337.599C267.058 360.22 278.9 389.02 296.575 422.061C331.918 488.128 390.475 570.952 463.877 654.854C537.279 738.755 611.585 807.801 672.369 851.611C702.767 873.521 729.738 889.086 751.492 897.056C762.37 901.042 771.894 903.109 779.861 903.149C787.819 903.19 794.161 901.208 798.784 897.163Z" stroke="url(#paint23_linear_4_77)" stroke-width="2"/>
<path opacity="0.862069" d="M822.9 875.838C827.154 871.406 829.425 865.162 829.751 857.21C830.077 849.25 828.45 839.641 824.97 828.591C818.009 806.494 803.702 778.835 783.214 747.461C742.247 684.725 676.694 607.32 596.259 530.135C515.825 452.95 435.783 390.643 371.412 352.297C339.22 333.12 310.995 319.965 288.629 313.921C277.446 310.899 267.778 309.669 259.838 310.324C251.906 310.977 245.761 313.504 241.508 317.936C237.254 322.369 234.983 328.613 234.657 336.565C234.33 344.525 235.958 354.134 239.438 365.183C246.399 387.281 260.706 414.94 281.194 446.314C322.161 509.05 387.714 586.455 468.149 663.64C548.583 740.825 628.625 803.131 692.996 841.477C725.188 860.654 753.413 873.81 775.779 879.853C786.962 882.876 796.63 884.105 804.57 883.451C812.502 882.797 818.646 880.271 822.9 875.838Z" stroke="url(#paint24_linear_4_77)" stroke-width="2"/>
<path opacity="0.896552" d="M844.804 852.391C848.655 847.604 850.373 841.187 850.005 833.236C849.637 825.278 847.178 815.848 842.748 805.144C833.888 783.736 817.224 757.43 794.08 727.961C747.801 669.034 675.752 597.637 588.896 527.756C502.04 457.875 416.873 402.782 349.405 370.192C315.663 353.894 286.4 343.249 263.592 339.177C252.188 337.141 242.45 336.758 234.597 338.102C226.752 339.445 220.851 342.497 217 347.284C213.149 352.07 211.431 358.488 211.799 366.438C212.167 374.397 214.626 383.827 219.056 394.531C227.916 415.938 244.58 442.245 267.724 471.714C314.003 530.64 386.052 602.038 472.908 671.919C559.764 741.799 644.931 796.893 712.399 829.483C746.141 845.781 775.404 856.426 798.212 860.498C809.616 862.534 819.354 862.916 827.207 861.572C835.052 860.23 840.953 857.178 844.804 852.391Z" stroke="url(#paint25_linear_4_77)" stroke-width="2"/>
<path opacity="0.931035" d="M864.319 827.022C867.738 821.918 868.89 815.375 867.831 807.487C866.77 799.591 863.499 790.411 858.152 780.133C847.46 759.58 828.567 734.826 802.943 707.486C751.704 652.817 673.706 587.971 581.09 525.926C488.475 463.881 398.83 416.42 328.778 389.835C293.745 376.539 263.664 368.485 240.589 366.417C229.05 365.383 219.316 365.85 211.61 367.873C203.912 369.894 198.3 373.449 194.88 378.553C191.461 383.658 190.309 390.201 191.368 398.088C192.429 405.985 195.7 415.165 201.047 425.442C211.739 445.995 230.632 470.749 256.256 498.089C307.495 552.758 385.493 617.604 478.109 679.649C570.725 741.694 660.37 789.155 730.421 815.741C765.455 829.036 795.535 837.09 818.611 839.159C830.149 840.193 839.883 839.725 847.589 837.702C855.287 835.681 860.899 832.126 864.319 827.022Z" stroke="url(#paint26_linear_4_77)" stroke-width="2"/>
<path opacity="0.965517" d="M881.286 799.945C884.248 794.562 884.825 787.944 883.082 780.178C881.337 772.404 877.279 763.544 871.057 753.772C858.614 734.229 837.636 711.216 809.726 686.213C753.918 636.218 670.565 578.417 572.894 524.68C475.223 470.943 381.782 431.476 309.68 411.097C273.621 400.905 242.954 395.503 219.785 395.454C208.201 395.429 198.544 396.744 191.044 399.431C183.552 402.115 178.27 406.146 175.309 411.528C172.347 416.911 171.77 423.53 173.513 431.295C175.258 439.069 179.317 447.929 185.538 457.701C197.981 477.244 218.96 500.257 246.87 525.26C302.678 575.255 386.031 633.056 483.702 686.793C581.373 740.53 674.813 779.997 746.915 800.376C782.974 810.568 813.642 815.97 836.81 816.019C848.395 816.044 858.051 814.729 865.551 812.042C873.044 809.358 878.325 805.327 881.286 799.945Z" stroke="url(#paint27_linear_4_77)" stroke-width="2"/>
<path d="M895.567 771.391C898.048 765.771 898.047 759.127 895.634 751.543C893.218 743.951 888.402 735.479 881.353 726.286C867.254 707.902 844.35 686.805 814.367 664.329C754.414 619.389 666.34 569.072 564.357 524.052C462.374 479.032 365.85 447.859 292.246 433.842C255.436 426.832 224.414 424.123 201.33 426.094C189.787 427.079 180.282 429.23 173.044 432.56C165.815 435.887 160.905 440.363 158.424 445.983C155.942 451.603 155.944 458.247 158.357 465.831C160.773 473.423 165.589 481.896 172.638 491.088C186.737 509.473 209.641 530.57 239.624 553.045C299.577 597.986 387.651 648.302 489.634 693.322C591.616 738.342 688.141 769.515 761.745 783.533C798.555 790.543 829.577 793.251 852.661 791.281C864.204 790.296 873.709 788.145 880.946 784.814C888.176 781.487 893.086 777.012 895.567 771.391Z" stroke="url(#paint28_linear_4_77)" stroke-width="2"/>
</g>
<defs>
<linearGradient id="paint0_linear_4_77" x1="589.519" y1="615.899" x2="537.398" y2="436.278" gradientUnits="userSpaceOnUse">
<stop stop-color="white" stop-opacity="0.17"/>
<stop offset="1" stop-color="white" stop-opacity="0.26"/>
</linearGradient>
<linearGradient id="paint1_linear_4_77" x1="595.945" y1="616.235" x2="528.368" y2="441.84" gradientUnits="userSpaceOnUse">
<stop stop-color="white" stop-opacity="0.17"/>
<stop offset="1" stop-color="white" stop-opacity="0.26"/>
</linearGradient>
<linearGradient id="paint2_linear_4_77" x1="602.114" y1="615.908" x2="519.594" y2="448.067" gradientUnits="userSpaceOnUse">
<stop stop-color="white" stop-opacity="0.17"/>
<stop offset="1" stop-color="white" stop-opacity="0.26"/>
</linearGradient>
<linearGradient id="paint3_linear_4_77" x1="607.969" y1="614.943" x2="511.135" y2="454.933" gradientUnits="userSpaceOnUse">
<stop stop-color="white" stop-opacity="0.17"/>
<stop offset="1" stop-color="white" stop-opacity="0.26"/>
</linearGradient>
<linearGradient id="paint4_linear_4_77" x1="613.455" y1="613.368" x2="503.044" y2="462.407" gradientUnits="userSpaceOnUse">
<stop stop-color="white" stop-opacity="0.17"/>
<stop offset="1" stop-color="white" stop-opacity="0.26"/>
</linearGradient>
<linearGradient id="paint5_linear_4_77" x1="618.521" y1="611.22" x2="495.373" y2="470.455" gradientUnits="userSpaceOnUse">
<stop stop-color="white" stop-opacity="0.17"/>
<stop offset="1" stop-color="white" stop-opacity="0.26"/>
</linearGradient>
<linearGradient id="paint6_linear_4_77" x1="623.118" y1="608.536" x2="488.17" y2="479.041" gradientUnits="userSpaceOnUse">
<stop stop-color="white" stop-opacity="0.17"/>
<stop offset="1" stop-color="white" stop-opacity="0.26"/>
</linearGradient>
<linearGradient id="paint7_linear_4_77" x1="627.203" y1="605.357" x2="481.483" y2="488.116" gradientUnits="userSpaceOnUse">
<stop stop-color="white" stop-opacity="0.17"/>
<stop offset="1" stop-color="white" stop-opacity="0.26"/>
</linearGradient>
<linearGradient id="paint8_linear_4_77" x1="630.733" y1="601.734" x2="475.349" y2="497.639" gradientUnits="userSpaceOnUse">
<stop stop-color="white" stop-opacity="0.17"/>
<stop offset="1" stop-color="white" stop-opacity="0.26"/>
</linearGradient>
<linearGradient id="paint9_linear_4_77" x1="633.672" y1="597.714" x2="469.806" y2="507.559" gradientUnits="userSpaceOnUse">
<stop stop-color="white" stop-opacity="0.17"/>
<stop offset="1" stop-color="white" stop-opacity="0.26"/>
</linearGradient>
<linearGradient id="paint10_linear_4_77" x1="635.986" y1="593.353" x2="464.886" y2="517.822" gradientUnits="userSpaceOnUse">
<stop stop-color="white" stop-opacity="0.17"/>
<stop offset="1" stop-color="white" stop-opacity="0.26"/>
</linearGradient>
<linearGradient id="paint11_linear_4_77" x1="637.649" y1="588.704" x2="460.618" y2="528.373" gradientUnits="userSpaceOnUse">
<stop stop-color="white" stop-opacity="0.17"/>
<stop offset="1" stop-color="white" stop-opacity="0.26"/>
</linearGradient>
<linearGradient id="paint12_linear_4_77" x1="638.639" y1="583.825" x2="457.023" y2="539.152" gradientUnits="userSpaceOnUse">
<stop stop-color="white" stop-opacity="0.17"/>
<stop offset="1" stop-color="white" stop-opacity="0.26"/>
</linearGradient>
<linearGradient id="paint13_linear_4_77" x1="638.939" y1="578.774" x2="454.12" y2="550.101" gradientUnits="userSpaceOnUse">
<stop stop-color="white" stop-opacity="0.17"/>
<stop offset="1" stop-color="white" stop-opacity="0.26"/>
</linearGradient>
<linearGradient id="paint14_linear_4_77" x1="638.534" y1="573.616" x2="451.92" y2="561.16" gradientUnits="userSpaceOnUse">
<stop stop-color="white" stop-opacity="0.17"/>
<stop offset="1" stop-color="white" stop-opacity="0.26"/>
</linearGradient>
<linearGradient id="paint15_linear_4_77" x1="637.42" y1="568.409" x2="450.43" y2="572.265" gradientUnits="userSpaceOnUse">
<stop stop-color="white" stop-opacity="0.17"/>
<stop offset="1" stop-color="white" stop-opacity="0.26"/>
</linearGradient>
<linearGradient id="paint16_linear_4_77" x1="635.594" y1="563.218" x2="449.651" y2="583.356" gradientUnits="userSpaceOnUse">
<stop stop-color="white" stop-opacity="0.17"/>
<stop offset="1" stop-color="white" stop-opacity="0.26"/>
</linearGradient>
<linearGradient id="paint17_linear_4_77" x1="633.06" y1="558.103" x2="449.581" y2="594.37" gradientUnits="userSpaceOnUse">
<stop stop-color="white" stop-opacity="0.17"/>
<stop offset="1" stop-color="white" stop-opacity="0.26"/>
</linearGradient>
<linearGradient id="paint18_linear_4_77" x1="629.828" y1="553.127" x2="450.208" y2="605.248" gradientUnits="userSpaceOnUse">
<stop stop-color="white" stop-opacity="0.17"/>
<stop offset="1" stop-color="white" stop-opacity="0.26"/>
</linearGradient>
<linearGradient id="paint19_linear_4_77" x1="625.913" y1="548.349" x2="451.519" y2="615.926" gradientUnits="userSpaceOnUse">
<stop stop-color="white" stop-opacity="0.17"/>
<stop offset="1" stop-color="white" stop-opacity="0.26"/>
</linearGradient>
<linearGradient id="paint20_linear_4_77" x1="621.334" y1="543.828" x2="453.493" y2="626.347" gradientUnits="userSpaceOnUse">
<stop stop-color="white" stop-opacity="0.17"/>
<stop offset="1" stop-color="white" stop-opacity="0.26"/>
</linearGradient>
<linearGradient id="paint21_linear_4_77" x1="616.116" y1="539.621" x2="456.106" y2="636.455" gradientUnits="userSpaceOnUse">
<stop stop-color="white" stop-opacity="0.17"/>
<stop offset="1" stop-color="white" stop-opacity="0.26"/>
</linearGradient>
<linearGradient id="paint22_linear_4_77" x1="610.29" y1="535.782" x2="459.328" y2="646.193" gradientUnits="userSpaceOnUse">
<stop stop-color="white" stop-opacity="0.17"/>
<stop offset="1" stop-color="white" stop-opacity="0.26"/>
</linearGradient>
<linearGradient id="paint23_linear_4_77" x1="603.889" y1="532.364" x2="463.124" y2="655.512" gradientUnits="userSpaceOnUse">
<stop stop-color="white" stop-opacity="0.17"/>
<stop offset="1" stop-color="white" stop-opacity="0.26"/>
</linearGradient>
<linearGradient id="paint24_linear_4_77" x1="596.952" y1="529.413" x2="467.456" y2="664.361" gradientUnits="userSpaceOnUse">
<stop stop-color="white" stop-opacity="0.17"/>
<stop offset="1" stop-color="white" stop-opacity="0.26"/>
</linearGradient>
<linearGradient id="paint25_linear_4_77" x1="589.523" y1="526.977" x2="472.281" y2="672.698" gradientUnits="userSpaceOnUse">
<stop stop-color="white" stop-opacity="0.17"/>
<stop offset="1" stop-color="white" stop-opacity="0.26"/>
</linearGradient>
<linearGradient id="paint26_linear_4_77" x1="581.647" y1="525.095" x2="477.552" y2="680.48" gradientUnits="userSpaceOnUse">
<stop stop-color="white" stop-opacity="0.17"/>
<stop offset="1" stop-color="white" stop-opacity="0.26"/>
</linearGradient>
<linearGradient id="paint27_linear_4_77" x1="573.376" y1="523.804" x2="483.22" y2="687.669" gradientUnits="userSpaceOnUse">
<stop stop-color="white" stop-opacity="0.17"/>
<stop offset="1" stop-color="white" stop-opacity="0.26"/>
</linearGradient>
<linearGradient id="paint28_linear_4_77" x1="564.761" y1="523.137" x2="489.23" y2="694.237" gradientUnits="userSpaceOnUse">
<stop stop-color="white" stop-opacity="0.17"/>
<stop offset="1" stop-color="white" stop-opacity="0.26"/>
</linearGradient>
</defs>
</svg>
