<svg width="1163" height="1168" viewBox="0 0 1163 1168" fill="none" xmlns="http://www.w3.org/2000/svg">
<path opacity="0.0344828" d="M963.949 569.911C963.329 563.799 960.045 558.024 954.199 552.623C948.347 547.216 939.974 542.23 929.303 537.721C907.961 528.705 877.623 521.682 840.451 516.958C766.122 507.514 664.688 507.291 553.78 518.546C442.872 529.801 343.552 550.397 272.636 574.582C237.17 586.677 208.862 599.652 189.766 612.771C180.218 619.332 173.017 625.899 168.371 632.37C163.729 638.836 161.672 645.153 162.293 651.265C162.913 657.377 166.197 663.152 172.043 668.553C177.895 673.96 186.268 678.946 196.939 683.454C218.281 692.471 248.619 699.494 285.791 704.217C360.12 713.662 461.554 713.885 572.462 702.63C683.369 691.375 782.69 670.779 853.606 646.594C889.072 634.499 917.38 621.524 936.476 608.404C946.024 601.844 953.225 595.277 957.871 588.805C962.512 582.34 964.569 576.023 963.949 569.911Z" stroke="url(#paint0_linear_4_1011)" stroke-width="2"/>
<path opacity="0.0689655" d="M960.691 532.465C959.54 526.43 955.765 520.963 949.471 516.093C943.17 511.217 934.395 506.979 923.371 503.418C901.324 496.296 870.49 491.944 833.047 490.478C758.178 487.547 657.111 496.166 547.606 517.044C438.101 537.923 340.954 567.097 272.415 597.37C238.138 612.51 211.069 627.903 193.189 642.637C184.249 650.005 177.648 657.174 173.584 664.026C169.523 670.871 168.025 677.344 169.175 683.379C170.326 689.414 174.101 694.881 180.395 699.751C186.696 704.627 195.472 708.865 206.496 712.426C228.542 719.548 259.376 723.9 296.819 725.366C371.689 728.297 472.755 719.678 582.26 698.8C691.765 677.921 788.913 648.747 857.451 618.474C891.728 603.334 918.798 587.941 936.677 573.207C945.617 565.839 952.218 558.67 956.283 551.818C960.343 544.973 961.842 538.5 960.691 532.465Z" stroke="url(#paint1_linear_4_1011)" stroke-width="2"/>
<path opacity="0.103448" d="M954.421 495.593C952.749 489.681 948.512 484.564 941.817 480.26C935.116 475.952 926.004 472.496 914.711 469.909C892.128 464.736 861.032 463.087 823.604 464.89C748.764 468.496 648.833 485.89 541.564 516.233C434.296 546.577 340.061 584.106 274.421 620.238C241.595 638.308 215.97 656.001 199.443 672.238C191.179 680.356 185.228 688.074 181.776 695.254C178.327 702.427 177.399 709.006 179.071 714.917C180.743 720.829 184.98 725.946 191.675 730.25C198.377 734.558 207.488 738.015 218.781 740.601C241.364 745.774 272.46 747.423 309.888 745.62C384.728 742.014 484.659 724.62 591.928 694.277C699.196 663.934 793.432 626.404 859.071 590.272C891.897 572.202 917.522 554.509 934.05 538.272C942.314 530.154 948.265 522.436 951.716 515.256C955.165 508.083 956.094 501.504 954.421 495.593Z" stroke="url(#paint2_linear_4_1011)" stroke-width="2"/>
<path opacity="0.137931" d="M945.202 459.555C943.02 453.811 938.353 449.083 931.309 445.379C924.257 441.671 914.879 439.022 903.404 437.429C880.456 434.244 849.334 435.312 812.206 440.371C737.965 450.485 639.93 476.523 535.715 516.1C431.499 555.676 340.893 601.277 278.653 642.992C247.526 663.854 223.54 683.713 208.491 701.328C200.966 710.136 195.711 718.343 192.898 725.797C190.088 733.243 189.736 739.877 191.917 745.621C194.098 751.364 198.765 756.093 205.809 759.796C212.861 763.504 222.239 766.154 233.714 767.746C256.662 770.931 287.784 769.864 324.912 764.805C399.153 754.69 497.188 728.653 601.404 689.076C705.62 649.499 796.225 603.899 858.466 562.184C889.593 541.322 913.578 521.462 928.627 503.847C936.152 495.039 941.408 486.833 944.221 479.379C947.031 471.933 947.383 465.298 945.202 459.555Z" stroke="url(#paint3_linear_4_1011)" stroke-width="2"/>
<path opacity="0.172414" d="M933.115 424.606C930.441 419.075 925.38 414.771 918.04 411.695C910.691 408.616 901.118 406.794 889.548 406.208C866.409 405.035 835.499 408.811 798.953 417.086C725.876 433.633 630.484 468.116 530.114 516.625C429.744 565.134 343.458 618.458 285.09 665.438C255.9 688.934 233.736 710.808 220.28 729.668C213.551 739.098 209.031 747.732 206.878 755.403C204.728 763.065 204.955 769.705 207.629 775.237C210.302 780.768 215.363 785.072 222.704 788.147C230.052 791.227 239.625 793.048 251.195 793.635C274.334 794.808 305.244 791.032 341.79 782.757C414.867 766.21 510.259 731.727 610.629 683.218C710.999 634.709 797.286 581.385 855.653 534.404C884.844 510.909 907.007 489.034 920.463 470.175C927.192 460.744 931.713 452.111 933.865 444.44C936.016 436.777 935.788 430.138 933.115 424.606Z" stroke="url(#paint4_linear_4_1011)" stroke-width="2"/>
<path opacity="0.206897" d="M918.267 390.991C915.122 385.714 909.705 381.868 902.124 379.443C894.536 377.016 884.84 376.036 873.263 376.46C850.11 377.308 819.647 383.764 783.961 395.193C712.604 418.045 620.58 460.711 524.82 517.783C429.06 574.856 347.749 635.497 293.698 687.386C266.667 713.336 246.495 737.059 234.733 757.02C228.852 767.001 225.101 775.995 223.625 783.825C222.151 791.645 222.956 798.24 226.102 803.518C229.247 808.795 234.664 812.641 242.244 815.065C249.833 817.492 259.529 818.473 271.106 818.049C294.259 817.201 324.722 810.745 360.408 799.316C431.765 776.463 523.789 733.798 619.549 676.725C715.309 619.653 796.619 559.012 850.67 507.122C877.702 481.172 897.874 457.45 909.636 437.489C915.517 427.508 919.268 418.513 920.744 410.684C922.218 402.863 921.413 396.268 918.267 390.991Z" stroke="url(#paint5_linear_4_1011)" stroke-width="2"/>
<path opacity="0.241379" d="M900.787 358.945C897.194 353.962 891.462 350.603 883.699 348.848C875.928 347.092 866.183 346.96 854.687 348.392C831.697 351.254 801.912 360.341 767.358 374.836C698.264 403.821 610.309 454.345 519.888 519.546C429.466 584.748 353.75 652.244 304.427 708.647C279.76 736.855 261.732 762.245 251.755 783.155C246.766 793.61 243.814 802.898 243.026 810.826C242.239 818.746 243.616 825.245 247.209 830.228C250.802 835.211 256.534 838.571 264.297 840.325C272.068 842.081 281.813 842.213 293.309 840.782C316.299 837.919 346.084 828.833 380.638 814.337C449.731 785.352 537.687 734.828 628.108 669.627C718.53 604.426 794.246 536.929 843.569 480.526C868.236 452.319 886.264 426.928 896.241 406.018C901.23 395.563 904.182 386.275 904.97 378.347C905.757 370.428 904.38 363.928 900.787 358.945Z" stroke="url(#paint6_linear_4_1011)" stroke-width="2"/>
<path opacity="0.275862" d="M880.818 328.695C876.804 324.044 870.801 321.197 862.915 320.126C855.02 319.053 845.301 319.772 833.974 322.199C811.32 327.055 782.44 338.703 749.281 356.155C682.977 391.051 599.76 449.049 515.365 521.882C430.97 594.716 361.425 668.556 317.206 729.042C295.091 759.292 279.345 786.158 271.228 807.857C267.169 818.708 265.037 828.217 264.943 836.184C264.849 844.142 266.788 850.497 270.802 855.148C274.816 859.799 280.818 862.646 288.705 863.717C296.599 864.789 306.318 864.071 317.646 861.643C340.299 856.788 369.179 845.14 402.338 827.688C468.642 792.791 551.859 734.794 636.254 661.96C720.649 589.126 790.194 515.287 834.414 454.8C856.528 424.55 872.275 397.685 880.391 375.985C884.45 365.135 886.582 355.625 886.676 347.659C886.77 339.701 884.831 333.346 880.818 328.695Z" stroke="url(#paint7_linear_4_1011)" stroke-width="2"/>
<path opacity="0.310345" d="M858.528 300.447C854.124 296.163 847.896 293.85 839.946 293.471C831.988 293.09 822.369 294.653 811.296 298.059C789.152 304.87 761.397 318.991 729.885 339.266C666.875 379.809 589.029 444.838 511.303 524.751C433.578 604.663 370.732 684.282 331.953 748.393C312.559 780.455 299.214 808.59 293.019 830.915C289.922 842.078 288.627 851.737 289.228 859.682C289.828 867.618 292.313 873.779 296.717 878.063C301.121 882.346 307.349 884.659 315.298 885.039C323.256 885.419 332.876 883.857 343.948 880.451C366.093 873.639 393.847 859.519 425.359 839.243C488.37 798.701 566.215 733.671 643.941 653.759C721.667 573.847 784.512 494.227 823.291 430.117C842.685 398.054 856.03 369.919 862.225 347.594C865.322 336.431 866.617 326.772 866.017 318.828C865.416 310.892 862.932 304.73 858.528 300.447Z" stroke="url(#paint8_linear_4_1011)" stroke-width="2"/>
<path opacity="0.344828" d="M834.1 274.396C829.34 270.513 822.934 268.752 814.981 269.066C807.02 269.381 797.574 271.776 786.84 276.134C765.373 284.849 738.955 301.335 709.33 324.28C650.093 370.16 578.211 441.727 507.746 528.109C437.281 614.491 381.615 699.285 348.57 766.532C332.045 800.162 321.202 829.354 316.977 852.133C314.864 863.524 314.416 873.259 315.707 881.121C316.996 888.974 320.009 894.896 324.769 898.779C329.53 902.662 335.936 904.424 343.888 904.109C351.849 903.794 361.296 901.4 372.03 897.042C393.496 888.326 419.914 871.84 449.539 848.895C508.776 803.015 580.658 731.449 651.123 645.066C721.588 558.684 777.255 473.89 810.299 406.644C826.825 373.013 837.667 343.822 841.892 321.042C844.005 309.652 844.453 299.916 843.163 292.055C841.873 284.201 838.861 278.28 834.1 274.396Z" stroke="url(#paint9_linear_4_1011)" stroke-width="2"/>
<path opacity="0.37931" d="M807.735 250.721C802.654 247.267 796.119 246.071 788.224 247.077C780.321 248.085 771.119 251.294 760.806 256.571C740.181 267.124 715.3 285.849 687.788 311.289C632.775 362.157 567.404 439.717 504.736 531.912C442.068 624.107 394.003 713.43 366.945 783.3C353.414 818.243 345.157 848.268 342.933 871.33C341.821 882.861 342.223 892.598 344.194 900.317C346.163 908.029 349.68 913.665 354.761 917.119C359.842 920.572 366.377 921.769 374.272 920.762C382.175 919.755 391.377 916.546 401.69 911.269C422.315 900.716 447.196 881.99 474.708 856.55C529.721 805.682 595.092 728.123 657.76 635.928C720.429 543.733 768.493 454.41 795.551 384.539C809.083 349.596 817.339 319.571 819.563 296.51C820.675 284.979 820.273 275.242 818.302 267.522C816.333 259.811 812.816 254.175 807.735 250.721Z" stroke="url(#paint10_linear_4_1011)" stroke-width="2"/>
<path opacity="0.413793" d="M779.646 229.581C774.284 226.584 767.669 225.961 759.892 227.652C752.107 229.345 743.22 233.343 733.406 239.499C713.779 251.81 690.625 272.632 665.434 300.373C615.064 355.843 556.702 438.804 502.307 536.11C447.913 633.417 407.816 726.589 386.951 798.551C376.517 834.541 370.908 865.171 370.703 888.339C370.6 899.923 371.849 909.588 374.485 917.106C377.119 924.617 381.114 929.925 386.476 932.923C391.839 935.92 398.453 936.543 406.231 934.852C414.016 933.16 422.903 929.161 432.717 923.005C452.344 910.694 475.498 889.872 500.688 862.131C551.059 806.661 609.421 723.7 663.815 626.394C718.21 529.088 758.307 435.916 779.171 363.953C789.606 327.963 795.215 297.333 795.42 274.165C795.523 262.581 794.274 252.916 791.638 245.398C789.004 237.887 785.009 232.579 779.646 229.581Z" stroke="url(#paint11_linear_4_1011)" stroke-width="2"/>
<path opacity="0.448276" d="M750.061 211.119C744.458 208.6 737.814 208.557 730.214 210.919C722.606 213.283 714.101 218.042 704.861 225.029C686.382 239.004 665.131 261.765 642.454 291.596C597.11 351.244 546.2 438.977 500.493 540.653C454.786 642.33 422.963 738.642 408.449 812.15C401.191 848.912 398.273 879.914 400.088 903.012C400.995 914.561 403.082 924.08 406.363 931.34C409.642 938.592 414.084 943.532 419.687 946.051C425.291 948.57 431.934 948.613 439.535 946.251C447.143 943.887 455.648 939.129 464.888 932.141C483.367 918.166 504.618 895.405 527.295 865.574C572.639 805.926 623.549 718.194 669.255 616.517C714.962 514.84 746.786 418.528 761.299 345.02C768.557 308.259 771.475 277.256 769.661 254.159C768.753 242.609 766.667 233.09 763.385 225.83C760.107 218.578 755.664 213.638 750.061 211.119Z" stroke="url(#paint12_linear_4_1011)" stroke-width="2"/>
<path opacity="0.482759" d="M719.218 195.455C713.416 193.434 706.794 193.97 699.429 196.985C692.056 200.004 683.998 205.485 675.402 213.251C658.211 228.783 639.025 253.31 619.034 285.004C579.061 348.377 535.991 440.213 499.32 545.486C462.649 650.76 439.341 749.479 431.289 823.972C427.263 861.226 427.058 892.365 430.879 915.217C432.789 926.643 435.698 935.944 439.599 942.89C443.497 949.829 448.353 954.363 454.155 956.384C459.957 958.405 466.579 957.869 473.944 954.854C481.317 951.835 489.375 946.354 497.971 938.587C515.162 923.056 534.348 898.529 554.339 866.835C594.312 803.462 637.381 711.626 674.052 606.353C710.723 501.079 734.032 402.36 742.083 327.867C746.11 290.613 746.314 259.473 742.494 236.622C740.584 225.196 737.675 215.895 733.773 208.949C729.875 202.01 725.019 197.476 719.218 195.455Z" stroke="url(#paint13_linear_4_1011)" stroke-width="2"/>
<path opacity="0.517241" d="M687.367 182.684C681.411 181.177 674.861 182.288 667.787 185.934C660.705 189.583 653.155 195.746 645.269 204.232C629.497 221.203 612.521 247.309 595.369 280.624C561.072 347.24 526.17 442.48 498.814 550.549C471.457 658.618 456.841 758.993 455.313 833.904C454.548 871.368 457.059 902.406 462.856 924.838C465.755 936.054 469.463 945.066 473.956 951.646C478.444 958.219 483.676 962.312 489.632 963.82C495.588 965.327 502.138 964.216 509.212 960.571C516.294 956.921 523.844 950.758 531.73 942.272C547.502 925.301 564.478 899.195 581.63 865.88C615.927 799.264 650.829 704.024 678.185 595.955C705.542 487.886 720.157 387.511 721.686 312.6C722.45 275.136 719.94 244.098 714.142 221.667C711.243 210.45 707.535 201.438 703.043 194.858C698.555 188.286 693.323 184.192 687.367 182.684Z" stroke="url(#paint14_linear_4_1011)" stroke-width="2"/>
<path opacity="0.551724" d="M654.763 172.888C648.698 171.905 642.27 173.583 635.54 177.831C628.803 182.084 621.82 188.882 614.703 198.023C600.47 216.304 585.835 243.79 571.651 278.473C543.29 347.825 516.822 445.744 498.989 555.786C481.155 665.828 475.343 767.095 480.35 841.854C482.853 879.242 488.059 909.944 495.79 931.784C499.655 942.705 504.135 951.36 509.183 957.523C514.227 963.68 519.796 967.302 525.861 968.284C531.925 969.267 538.354 967.59 545.084 963.341C551.82 959.088 558.804 952.291 565.921 943.15C580.153 924.868 594.789 897.383 608.973 862.699C637.334 793.347 663.802 695.428 681.635 585.386C699.469 475.344 705.281 374.077 700.274 299.318C697.771 261.93 692.565 231.228 684.834 209.388C680.969 198.467 676.489 189.812 671.44 183.649C666.397 177.493 660.827 173.871 654.763 172.888Z" stroke="url(#paint15_linear_4_1011)" stroke-width="2"/>
<path opacity="0.586207" d="M621.669 166.116C615.542 165.666 609.284 167.897 602.95 172.716C596.61 177.54 590.245 184.92 583.952 194.647C571.367 214.099 559.182 242.756 548.076 278.544C525.867 350.103 508.034 449.957 499.859 561.134C491.684 672.312 494.721 773.7 506.223 847.738C511.976 884.766 519.838 914.897 529.443 935.98C534.245 946.523 539.462 954.754 545.029 960.454C550.59 966.148 556.454 969.27 562.581 969.721C568.708 970.171 574.965 967.94 581.299 963.121C587.64 958.297 594.005 950.917 600.297 941.19C612.883 921.738 625.067 893.081 636.174 857.293C658.382 785.734 676.216 685.88 684.39 574.703C692.565 463.525 689.529 362.137 678.026 288.099C672.273 251.071 664.411 220.94 654.807 199.857C650.004 189.314 644.788 181.083 639.221 175.383C633.66 169.69 627.796 166.567 621.669 166.116Z" stroke="url(#paint16_linear_4_1011)" stroke-width="2"/>
<path opacity="0.62069" d="M588.35 162.404C582.207 162.489 576.167 165.258 570.277 170.611C564.381 175.969 558.684 183.876 553.263 194.114C542.421 214.588 532.78 244.198 524.835 280.818C508.948 354.041 499.885 455.069 501.431 566.536C502.978 678.003 514.839 778.74 532.751 851.494C541.709 887.879 552.167 917.211 563.573 937.377C569.276 947.46 575.19 955.206 581.232 960.399C587.268 965.586 593.382 968.186 599.525 968.101C605.668 968.016 611.707 965.247 617.597 959.895C623.493 954.536 629.19 946.629 634.612 936.391C645.454 915.917 655.094 886.307 663.04 849.687C678.927 776.464 687.989 675.436 686.443 563.969C684.897 452.503 673.036 351.765 655.124 279.011C646.166 242.626 635.708 213.295 624.302 193.128C618.599 183.045 612.685 175.299 606.642 170.106C600.606 164.919 594.493 162.319 588.35 162.404Z" stroke="url(#paint17_linear_4_1011)" stroke-width="2"/>
<path opacity="0.655172" d="M555.073 161.757C548.961 162.377 543.186 165.661 537.785 171.507C532.379 177.359 527.392 185.732 522.884 196.403C513.868 217.745 506.844 248.083 502.121 285.255C492.676 359.584 492.453 461.018 503.708 571.926C514.964 682.834 535.56 782.154 559.744 853.07C571.839 888.536 584.814 916.844 597.934 935.94C604.494 945.488 611.061 952.689 617.533 957.335C623.998 961.976 630.315 964.034 636.428 963.413C642.54 962.793 648.315 959.509 653.716 953.663C659.122 947.811 664.109 939.438 668.617 928.767C677.633 907.425 684.656 877.087 689.38 839.915C698.825 765.586 699.048 664.152 687.792 553.244C676.537 442.336 655.941 343.016 631.757 272.1C619.662 236.634 606.687 208.326 593.567 189.23C587.007 179.682 580.44 172.481 573.968 167.835C567.503 163.194 561.186 161.136 555.073 161.757Z" stroke="url(#paint18_linear_4_1011)" stroke-width="2"/>
<path opacity="0.689655" d="M522.106 164.161C516.071 165.311 510.605 169.086 505.734 175.38C500.858 181.681 496.62 190.457 493.059 201.481C485.937 223.527 481.585 254.361 480.119 291.804C477.188 366.674 485.807 467.74 506.685 577.245C527.564 686.75 556.738 783.898 587.011 852.436C602.151 886.713 617.544 913.783 632.278 931.662C639.646 940.602 646.815 947.203 653.667 951.268C660.513 955.328 666.985 956.827 673.02 955.676C679.055 954.525 684.522 950.75 689.392 944.456C694.268 938.156 698.506 929.38 702.067 918.356C709.189 896.309 713.541 865.475 715.007 828.032C717.938 753.163 709.319 652.096 688.441 542.591C667.562 433.086 638.388 335.939 608.115 267.4C592.975 233.123 577.582 206.054 562.848 188.175C555.48 179.234 548.311 172.633 541.459 168.569C534.614 164.509 528.141 163.01 522.106 164.161Z" stroke="url(#paint19_linear_4_1011)" stroke-width="2"/>
<path opacity="0.724138" d="M489.713 169.576C483.802 171.248 478.685 175.485 474.381 182.18C470.073 188.882 466.616 197.994 464.029 209.286C458.856 231.869 457.208 262.965 459.011 300.394C462.617 375.233 480.011 475.164 510.354 582.433C540.697 689.702 578.227 783.937 614.359 849.576C632.429 882.403 650.122 908.028 666.358 924.555C674.477 932.819 682.194 938.77 689.375 942.222C696.548 945.67 703.126 946.599 709.038 944.927C714.949 943.254 720.067 939.017 724.37 932.323C728.679 925.621 732.135 916.509 734.722 905.217C739.895 882.633 741.544 851.537 739.74 814.109C736.135 739.269 718.741 639.338 688.397 532.07C658.054 424.801 620.524 330.566 584.393 264.927C566.323 232.1 548.629 206.475 532.393 189.948C524.274 181.684 516.557 175.733 509.376 172.281C502.204 168.833 495.625 167.904 489.713 169.576Z" stroke="url(#paint20_linear_4_1011)" stroke-width="2"/>
<path opacity="0.758621" d="M458.156 177.942C452.412 180.123 447.684 184.79 443.98 191.834C440.272 198.886 437.623 208.264 436.03 219.739C432.845 242.687 433.913 273.809 438.972 310.937C449.086 385.178 475.124 483.213 514.701 587.429C554.277 691.644 599.878 782.25 641.593 844.49C662.455 875.617 682.314 899.603 699.929 914.652C708.737 922.177 716.944 927.433 724.398 930.246C731.844 933.056 738.478 933.408 744.222 931.226C749.965 929.045 754.694 924.378 758.397 917.334C762.105 910.282 764.755 900.904 766.347 889.429C769.532 866.481 768.465 835.359 763.406 798.231C753.291 723.99 727.254 625.955 687.677 521.739C648.1 417.524 602.5 326.918 560.785 264.678C539.923 233.551 520.063 209.565 502.448 194.516C493.64 186.991 485.434 181.735 477.98 178.922C470.534 176.113 463.899 175.761 458.156 177.942Z" stroke="url(#paint21_linear_4_1011)" stroke-width="2"/>
<path opacity="0.793103" d="M427.686 189.174C422.155 191.848 417.851 196.909 414.775 204.249C411.696 211.597 409.875 221.171 409.288 232.741C408.115 255.879 411.891 286.789 420.166 323.336C436.713 396.413 471.196 491.805 519.705 592.175C568.214 692.545 621.538 778.831 668.519 837.199C692.014 866.389 713.889 888.552 732.748 902.009C742.179 908.738 750.812 913.258 758.483 915.411C766.146 917.561 772.785 917.334 778.317 914.66C783.848 911.987 788.152 906.926 791.228 899.585C794.307 892.237 796.129 882.663 796.715 871.094C797.888 847.955 794.112 817.045 785.837 780.499C769.29 707.422 734.807 612.03 686.298 511.66C637.789 411.29 584.465 325.003 537.484 266.635C513.989 237.445 492.115 215.282 473.255 201.825C463.825 195.097 455.191 190.576 447.52 188.424C439.857 186.273 433.218 186.501 427.686 189.174Z" stroke="url(#paint22_linear_4_1011)" stroke-width="2"/>
<path opacity="0.827586" d="M398.551 203.167C393.274 206.313 389.428 211.73 387.003 219.31C384.576 226.899 383.596 236.595 384.02 248.172C384.868 271.324 391.324 301.788 402.753 337.474C425.606 408.83 468.271 500.854 525.344 596.614C582.416 692.375 643.057 773.685 694.946 827.736C720.896 854.768 744.619 874.94 764.58 886.702C774.561 892.583 783.555 896.334 791.385 897.81C799.206 899.284 805.8 898.479 811.078 895.333C816.355 892.188 820.201 886.771 822.625 879.19C825.052 871.602 826.033 861.906 825.609 850.329C824.761 827.176 818.305 796.713 806.876 761.027C784.023 689.67 741.358 597.646 684.285 501.886C627.213 406.126 566.572 324.815 514.683 270.764C488.732 243.733 465.01 223.561 445.049 211.799C435.068 205.918 426.073 202.167 418.244 200.691C410.423 199.217 403.828 200.022 398.551 203.167Z" stroke="url(#paint23_linear_4_1011)" stroke-width="2"/>
<path opacity="0.862069" d="M370.986 219.795C366.003 223.388 362.643 229.12 360.889 236.883C359.133 244.654 359.001 254.399 360.432 265.894C363.295 288.885 372.381 318.67 386.877 353.224C415.862 422.317 466.386 510.273 531.587 600.694C596.788 691.116 664.285 766.832 720.688 816.155C748.895 840.821 774.286 858.849 795.196 868.827C805.651 873.816 814.939 876.768 822.867 877.556C830.786 878.343 837.286 876.966 842.269 873.373C847.252 869.78 850.611 864.048 852.366 856.285C854.122 848.514 854.254 838.769 852.822 827.273C849.96 804.282 840.873 774.498 826.378 739.944C797.393 670.85 746.869 582.895 681.668 492.474C616.466 402.052 548.97 326.336 492.567 277.013C464.359 252.346 438.969 234.318 418.059 224.341C407.604 219.352 398.316 216.399 390.388 215.612C382.468 214.824 375.969 216.202 370.986 219.795Z" stroke="url(#paint24_linear_4_1011)" stroke-width="2"/>
<path opacity="0.896552" d="M345.213 238.909C340.562 242.923 337.715 248.926 336.644 256.812C335.572 264.707 336.29 274.425 338.718 285.753C343.574 308.407 355.221 337.286 372.673 370.445C407.57 436.749 465.567 519.967 538.401 604.361C611.235 688.756 685.074 758.301 745.561 802.521C775.811 824.635 802.676 840.382 824.376 848.499C835.226 852.557 844.736 854.689 852.702 854.783C860.661 854.877 867.015 852.939 871.666 848.925C876.317 844.911 879.164 838.908 880.235 831.022C881.308 823.127 880.59 813.408 878.162 802.081C873.306 779.427 861.658 750.548 844.206 717.388C809.31 651.084 751.313 567.867 678.479 483.472C605.645 399.078 531.806 329.532 471.319 285.313C441.069 263.198 414.204 247.452 392.504 239.335C381.653 235.276 372.144 233.144 364.177 233.051C356.219 232.957 349.864 234.895 345.213 238.909Z" stroke="url(#paint25_linear_4_1011)" stroke-width="2"/>
<path opacity="0.931035" d="M321.445 260.344C317.161 264.748 314.848 270.976 314.469 278.926C314.088 286.884 315.651 296.503 319.057 307.576C325.868 329.72 339.989 357.475 360.264 388.987C400.807 451.997 465.836 529.843 545.749 607.569C625.661 685.294 705.28 748.139 769.391 786.919C801.453 806.313 829.589 819.658 851.913 825.853C863.076 828.95 872.735 830.245 880.68 829.644C888.616 829.044 894.777 826.559 899.061 822.155C903.344 817.751 905.657 811.523 906.037 803.574C906.417 795.616 904.855 785.996 901.449 774.924C894.637 752.779 880.517 725.025 860.241 693.513C819.699 630.502 754.669 552.657 674.757 474.931C594.845 397.205 515.225 334.36 451.115 295.581C419.052 276.187 390.917 262.842 368.592 256.647C357.429 253.549 347.77 252.254 339.826 252.855C331.89 253.455 325.728 255.94 321.445 260.344Z" stroke="url(#paint26_linear_4_1011)" stroke-width="2"/>
<path opacity="0.965517" d="M299.874 283.918C295.99 288.679 294.229 295.085 294.543 303.037C294.858 310.998 297.253 320.445 301.611 331.179C310.327 352.645 326.812 379.063 349.757 408.688C395.637 467.925 467.204 539.807 553.586 610.272C639.969 680.737 724.763 736.404 792.009 769.448C825.64 785.974 854.831 796.816 877.611 801.041C889.001 803.154 898.736 803.602 906.598 802.312C914.452 801.022 920.373 798.01 924.257 793.249C928.14 788.489 929.901 782.083 929.587 774.13C929.272 766.169 926.877 756.723 922.519 745.989C913.803 724.522 897.318 698.104 874.373 668.479C828.493 609.242 756.926 537.36 670.544 466.895C584.161 396.43 499.368 340.763 432.121 307.719C398.49 291.194 369.299 280.351 346.519 276.126C335.129 274.013 325.394 273.565 317.532 274.856C309.679 276.145 303.757 279.158 299.874 283.918Z" stroke="url(#paint27_linear_4_1011)" stroke-width="2"/>
<path d="M280.679 309.429C277.225 314.51 276.029 321.045 277.035 328.94C278.043 336.843 281.252 346.045 286.529 356.358C297.082 376.983 315.808 401.864 341.247 429.376C392.116 484.389 469.675 549.76 561.87 612.428C654.065 675.097 743.388 723.161 813.258 750.219C848.201 763.751 878.227 772.007 901.288 774.231C912.819 775.343 922.556 774.941 930.276 772.97C937.987 771.001 943.623 767.484 947.077 762.403C950.531 757.322 951.727 750.787 950.721 742.892C949.713 734.989 946.504 725.787 941.227 715.474C930.674 694.849 911.948 669.968 886.509 642.456C835.64 587.443 758.081 522.072 665.886 459.404C573.691 396.736 484.368 348.671 414.498 321.613C379.555 308.082 349.529 299.825 326.468 297.601C314.937 296.489 305.2 296.891 297.48 298.862C289.769 300.831 284.133 304.348 280.679 309.429Z" stroke="url(#paint28_linear_4_1011)" stroke-width="2"/>
<defs>
<linearGradient id="paint0_linear_4_1011" x1="553.679" y1="517.551" x2="572.563" y2="703.625" gradientUnits="userSpaceOnUse">
<stop stop-color="white" stop-opacity="0.17"/>
<stop offset="1" stop-color="white" stop-opacity="0.26"/>
</linearGradient>
<linearGradient id="paint1_linear_4_1011" x1="547.419" y1="516.062" x2="582.448" y2="699.782" gradientUnits="userSpaceOnUse">
<stop stop-color="white" stop-opacity="0.17"/>
<stop offset="1" stop-color="white" stop-opacity="0.26"/>
</linearGradient>
<linearGradient id="paint2_linear_4_1011" x1="541.292" y1="515.271" x2="592.2" y2="695.239" gradientUnits="userSpaceOnUse">
<stop stop-color="white" stop-opacity="0.17"/>
<stop offset="1" stop-color="white" stop-opacity="0.26"/>
</linearGradient>
<linearGradient id="paint3_linear_4_1011" x1="535.36" y1="515.165" x2="601.759" y2="690.011" gradientUnits="userSpaceOnUse">
<stop stop-color="white" stop-opacity="0.17"/>
<stop offset="1" stop-color="white" stop-opacity="0.26"/>
</linearGradient>
<linearGradient id="paint4_linear_4_1011" x1="529.679" y1="515.724" x2="611.064" y2="684.118" gradientUnits="userSpaceOnUse">
<stop stop-color="white" stop-opacity="0.17"/>
<stop offset="1" stop-color="white" stop-opacity="0.26"/>
</linearGradient>
<linearGradient id="paint5_linear_4_1011" x1="524.308" y1="516.924" x2="620.061" y2="677.584" gradientUnits="userSpaceOnUse">
<stop stop-color="white" stop-opacity="0.17"/>
<stop offset="1" stop-color="white" stop-opacity="0.26"/>
</linearGradient>
<linearGradient id="paint6_linear_4_1011" x1="519.303" y1="518.735" x2="628.693" y2="670.438" gradientUnits="userSpaceOnUse">
<stop stop-color="white" stop-opacity="0.17"/>
<stop offset="1" stop-color="white" stop-opacity="0.26"/>
</linearGradient>
<linearGradient id="paint7_linear_4_1011" x1="514.712" y1="521.125" x2="636.907" y2="662.717" gradientUnits="userSpaceOnUse">
<stop stop-color="white" stop-opacity="0.17"/>
<stop offset="1" stop-color="white" stop-opacity="0.26"/>
</linearGradient>
<linearGradient id="paint8_linear_4_1011" x1="510.586" y1="524.053" x2="644.658" y2="654.456" gradientUnits="userSpaceOnUse">
<stop stop-color="white" stop-opacity="0.17"/>
<stop offset="1" stop-color="white" stop-opacity="0.26"/>
</linearGradient>
<linearGradient id="paint9_linear_4_1011" x1="506.971" y1="527.477" x2="651.898" y2="645.698" gradientUnits="userSpaceOnUse">
<stop stop-color="white" stop-opacity="0.17"/>
<stop offset="1" stop-color="white" stop-opacity="0.26"/>
</linearGradient>
<linearGradient id="paint10_linear_4_1011" x1="503.909" y1="531.35" x2="658.588" y2="636.49" gradientUnits="userSpaceOnUse">
<stop stop-color="white" stop-opacity="0.17"/>
<stop offset="1" stop-color="white" stop-opacity="0.26"/>
</linearGradient>
<linearGradient id="paint11_linear_4_1011" x1="501.435" y1="535.622" x2="664.688" y2="626.882" gradientUnits="userSpaceOnUse">
<stop stop-color="white" stop-opacity="0.17"/>
<stop offset="1" stop-color="white" stop-opacity="0.26"/>
</linearGradient>
<linearGradient id="paint12_linear_4_1011" x1="499.581" y1="540.243" x2="670.167" y2="616.927" gradientUnits="userSpaceOnUse">
<stop stop-color="white" stop-opacity="0.17"/>
<stop offset="1" stop-color="white" stop-opacity="0.26"/>
</linearGradient>
<linearGradient id="paint13_linear_4_1011" x1="498.376" y1="545.157" x2="674.997" y2="606.682" gradientUnits="userSpaceOnUse">
<stop stop-color="white" stop-opacity="0.17"/>
<stop offset="1" stop-color="white" stop-opacity="0.26"/>
</linearGradient>
<linearGradient id="paint14_linear_4_1011" x1="497.844" y1="550.304" x2="679.155" y2="596.2" gradientUnits="userSpaceOnUse">
<stop stop-color="white" stop-opacity="0.17"/>
<stop offset="1" stop-color="white" stop-opacity="0.26"/>
</linearGradient>
<linearGradient id="paint15_linear_4_1011" x1="498.002" y1="555.626" x2="682.622" y2="585.546" gradientUnits="userSpaceOnUse">
<stop stop-color="white" stop-opacity="0.17"/>
<stop offset="1" stop-color="white" stop-opacity="0.26"/>
</linearGradient>
<linearGradient id="paint16_linear_4_1011" x1="498.862" y1="561.061" x2="685.388" y2="574.776" gradientUnits="userSpaceOnUse">
<stop stop-color="white" stop-opacity="0.17"/>
<stop offset="1" stop-color="white" stop-opacity="0.26"/>
</linearGradient>
<linearGradient id="paint17_linear_4_1011" x1="500.432" y1="566.55" x2="687.443" y2="563.956" gradientUnits="userSpaceOnUse">
<stop stop-color="white" stop-opacity="0.17"/>
<stop offset="1" stop-color="white" stop-opacity="0.26"/>
</linearGradient>
<linearGradient id="paint18_linear_4_1011" x1="502.714" y1="572.027" x2="688.787" y2="553.143" gradientUnits="userSpaceOnUse">
<stop stop-color="white" stop-opacity="0.17"/>
<stop offset="1" stop-color="white" stop-opacity="0.26"/>
</linearGradient>
<linearGradient id="paint19_linear_4_1011" x1="505.703" y1="577.433" x2="689.423" y2="542.404" gradientUnits="userSpaceOnUse">
<stop stop-color="white" stop-opacity="0.17"/>
<stop offset="1" stop-color="white" stop-opacity="0.26"/>
</linearGradient>
<linearGradient id="paint20_linear_4_1011" x1="509.392" y1="582.705" x2="689.36" y2="531.797" gradientUnits="userSpaceOnUse">
<stop stop-color="white" stop-opacity="0.17"/>
<stop offset="1" stop-color="white" stop-opacity="0.26"/>
</linearGradient>
<linearGradient id="paint21_linear_4_1011" x1="513.766" y1="587.784" x2="688.612" y2="521.384" gradientUnits="userSpaceOnUse">
<stop stop-color="white" stop-opacity="0.17"/>
<stop offset="1" stop-color="white" stop-opacity="0.26"/>
</linearGradient>
<linearGradient id="paint22_linear_4_1011" x1="518.805" y1="592.61" x2="687.198" y2="511.225" gradientUnits="userSpaceOnUse">
<stop stop-color="white" stop-opacity="0.17"/>
<stop offset="1" stop-color="white" stop-opacity="0.26"/>
</linearGradient>
<linearGradient id="paint23_linear_4_1011" x1="524.484" y1="597.126" x2="685.144" y2="501.374" gradientUnits="userSpaceOnUse">
<stop stop-color="white" stop-opacity="0.17"/>
<stop offset="1" stop-color="white" stop-opacity="0.26"/>
</linearGradient>
<linearGradient id="paint24_linear_4_1011" x1="530.776" y1="601.279" x2="682.479" y2="491.889" gradientUnits="userSpaceOnUse">
<stop stop-color="white" stop-opacity="0.17"/>
<stop offset="1" stop-color="white" stop-opacity="0.26"/>
</linearGradient>
<linearGradient id="paint25_linear_4_1011" x1="537.644" y1="605.015" x2="679.236" y2="482.819" gradientUnits="userSpaceOnUse">
<stop stop-color="white" stop-opacity="0.17"/>
<stop offset="1" stop-color="white" stop-opacity="0.26"/>
</linearGradient>
<linearGradient id="paint26_linear_4_1011" x1="545.051" y1="608.285" x2="675.454" y2="474.214" gradientUnits="userSpaceOnUse">
<stop stop-color="white" stop-opacity="0.17"/>
<stop offset="1" stop-color="white" stop-opacity="0.26"/>
</linearGradient>
<linearGradient id="paint27_linear_4_1011" x1="552.954" y1="611.047" x2="671.176" y2="466.12" gradientUnits="userSpaceOnUse">
<stop stop-color="white" stop-opacity="0.17"/>
<stop offset="1" stop-color="white" stop-opacity="0.26"/>
</linearGradient>
<linearGradient id="paint28_linear_4_1011" x1="561.308" y1="613.256" x2="666.448" y2="458.577" gradientUnits="userSpaceOnUse">
<stop stop-color="white" stop-opacity="0.17"/>
<stop offset="1" stop-color="white" stop-opacity="0.26"/>
</linearGradient>
</defs>
</svg>
